<svg xmlns="http://www.w3.org/2000/svg" viewBox="0 0 1440 349.35"><defs><style>.cls-1{font-size:50px;font-family:Montserrat, sans-serif;}.cls-2{fill:#fff;}</style></defs><g id="Layer_2" data-name="Layer 2"><g id="Layer_1-2" data-name="Layer 1"><text class="cls-1" transform="translate(104.04 63.31) rotate(-7.83)">F</text><text class="cls-1" transform="matrix(0.99, -0.13, 0.13, 0.99, 126.91, 60.18)">r</text><text class="cls-1" transform="translate(142.66 58.16) rotate(-6.6)">o</text><text class="cls-1" transform="matrix(0.99, -0.1, 0.1, 0.99, 169.92, 55.01)">n</text><text class="cls-1" transform="translate(197.36 52.21) rotate(-5.35)">t</text><text class="cls-1" transform="translate(213.55 50.67) rotate(-4.87)">e</text><text class="cls-1" transform="translate(238.53 48.53) rotate(-4.25)">n</text><text class="cls-1" transform="matrix(1, -0.06, 0.06, 1, 266.21, 46.47)">d</text><text class="cls-1" transform="translate(294.38 44.75) rotate(-3.08)"> </text><text class="cls-1" transform="translate(304.98 44.12) rotate(-2.47)">D</text><text class="cls-1" transform="translate(338.48 42.7) rotate(-1.53)">e</text><text class="cls-1" transform="translate(363.54 42.03) rotate(-0.57)">v</text><text class="cls-1" transform="matrix(1, 0.02, -0.02, 1, 387.15, 41.68)">e</text><text class="cls-1" transform="translate(412.22 42.16) rotate(2.18)">l</text><text class="cls-1" transform="translate(424.08 42.5) rotate(3.82)">o</text><text class="cls-1" transform="matrix(0.99, 0.11, -0.11, 0.99, 451.55, 44.32)">p</text><text class="cls-1" transform="translate(479.89 47.49) rotate(8.88)">e</text><text class="cls-1" transform="translate(504.7 51.44) rotate(10.98)">r</text><text class="cls-1" transform="translate(518.17 54.06) rotate(12.09)">,</text><text class="cls-1" transform="translate(528.33 56.23) rotate(13.2)"> </text><text class="cls-1" transform="translate(538.76 58.46) rotate(15.5)">U</text><text class="cls-1" transform="matrix(0.95, 0.32, -0.32, 0.95, 570.02, 67.18)">X</text><text class="cls-1" transform="translate(597.06 76.55) rotate(20.84)"> </text><text class="cls-1" transform="matrix(0.92, 0.38, -0.38, 0.92, 607.05, 80.24)">E</text><text class="cls-1" transform="translate(629.83 89.72) rotate(25.1)">n</text><text class="cls-1" transform="translate(654.81 101.52) rotate(26.92)">t</text><text class="cls-1" transform="translate(669.63 108.97) rotate(28.48)">h</text><text class="cls-1" transform="translate(694.05 122.25) rotate(29.95)">u</text><text class="cls-1" transform="matrix(0.86, 0.51, -0.51, 0.86, 717.92, 136.05)">s</text><text class="cls-1" transform="translate(734.95 146.19) rotate(30.99)">i</text><text class="cls-1" transform="translate(744.95 152.2) rotate(31.04)">a</text><text class="cls-1" transform="translate(765.49 164.57) rotate(30.72)">s</text><text class="cls-1" transform="matrix(0.86, 0.5, -0.5, 0.86, 782.31, 174.56)">t</text><text class="cls-1" transform="translate(796.32 182.69) rotate(29.58)">,</text><text class="cls-1" transform="matrix(0.87, 0.49, -0.49, 0.87, 805.27, 187.77)"> </text><text class="cls-1" transform="translate(814.76 193.15) rotate(27.82)">R</text><text class="cls-1" transform="translate(839.22 206.03) rotate(25.74)">e</text><text class="cls-1" transform="matrix(0.92, 0.4, -0.4, 0.92, 862.28, 217.1)">s</text><text class="cls-1" transform="matrix(0.93, 0.36, -0.36, 0.93, 880.94, 225.33)">e</text><text class="cls-1" transform="translate(904.9 234.69) rotate(18.76)">a</text><text class="cls-1" transform="translate(928.29 242.54) rotate(16.55)">r</text><text class="cls-1" transform="translate(943.97 247.26) rotate(14.49)">c</text><text class="cls-1" transform="translate(966.32 253.08) rotate(11.82)">h</text><text class="cls-1" transform="matrix(0.99, 0.16, -0.16, 0.99, 994.16, 258.85)">e</text><text class="cls-1" transform="translate(1019.41 262.83) rotate(7.16)">r</text><path class="cls-2" d="M0,98.49V349.35H1440V213.2c-152.25,62.69-272.46,70.49-348.63,68.08-332.62-10.53-368.54-225-697.26-226.91C267.15,53.64,58.87,75.27,0,98.49Z"/></g></g></svg>