<svg xmlns="http://www.w3.org/2000/svg" viewBox="0 0 792 615"><defs><style>.cls-1{fill:#77cb5c;}.cls-2{font-size:50px;font-family:Montserrat, sans-serif;}</style></defs><g id="Layer_2" data-name="Layer 2"><g id="Layer_1-2" data-name="Layer 1"><path class="cls-1" d="M792,0V580.36c-71.25,23.16-212.71,57.45-366.67,13.19C182,523.6,8.33,286.48,0,0Z"/><text class="cls-2" transform="matrix(0.72, 0.7, -0.7, 0.72, 189.64, 429.81)">H</text><text class="cls-2" transform="matrix(0.76, 0.65, -0.65, 0.76, 224.12, 462.57)">i</text><text class="cls-2" transform="matrix(0.78, 0.63, -0.63, 0.78, 236.99, 473.64)">,</text><text class="cls-2" transform="translate(248.7 483.14) rotate(37.53)"> </text><text class="cls-2" transform="matrix(0.81, 0.59, -0.59, 0.81, 260.97, 492.58)">I</text><text class="cls-2" transform="translate(274.75 502.49) rotate(34.13)">’</text><text class="cls-2" transform="translate(285.23 510.52) rotate(30.38)">m</text><text class="cls-2" transform="translate(337.32 540.09) rotate(26.25)"> </text><text class="cls-2" transform="translate(351.71 547.95) rotate(22.18)">M</text><text class="cls-2" transform="translate(406.34 569.32) rotate(17.9)">i</text><text class="cls-2" transform="translate(422.87 574.82) rotate(15.14)">c</text><text class="cls-2" transform="translate(454.54 583.46) rotate(11.14)">h</text><text class="cls-2" transform="matrix(0.99, 0.12, -0.12, 0.99, 494.17, 591.13)">e</text><text class="cls-2" transform="matrix(1, 0.07, -0.07, 1, 530.01, 595.31)">l</text><text class="cls-2" transform="translate(547.12 596.57) rotate(2.53)">l</text><text class="cls-2" transform="translate(564.57 597.53) rotate(-0.1)">e</text></g></g></svg>