<svg width="75" height="71" viewBox="0 0 75 71" fill="none" xmlns="http://www.w3.org/2000/svg">
<path d="M40.8833 69.0678C58.6208 69.0678 73 54.6887 73 36.9512C73 19.2136 58.6208 4.83447 40.8833 4.83447C23.1457 4.83447 8.7666 19.2136 8.7666 36.9512C8.7666 54.6887 23.1457 69.0678 40.8833 69.0678Z" fill="white" stroke="#C40282" stroke-width="3" stroke-linecap="round" stroke-linejoin="round"/>
<path d="M17.709 21.5888C21.6201 21.3171 24.8359 22.8456 28.4169 21.5669" stroke="#C40282" stroke-width="1.71442"/>
<path d="M16.4404 50.2661C21.768 50.6794 26.3617 49.7905 31.6566 49.4375Z" fill="#C40282"/>
<path d="M16.4404 50.2661C21.768 50.6794 26.3617 49.7905 31.6566 49.4375" stroke="#C40282" stroke-width="1.71442"/>
<path d="M36.5098 49.7615C40.6198 48.4498 46.5498 50.5794 48.3362 49.8368" stroke="#C40282" stroke-width="1.71442"/>
<path d="M51.6182 49.2119C56.4616 49.4105 61.3547 49.2785 66.0057 49.5885" stroke="#C40282" stroke-width="1.71442"/>
<path d="M51.6181 49.2117C59.3948 48.7256 55.117 28.602 53.8026 23.4496C44.188 14.8481 41.2981 47.576 47.7764 49.8896" stroke="#C40282" stroke-width="1.71442"/>
<path d="M49.6597 22.2004C68.7963 17.252 55.0658 43.6909 64.1226 49.5131" stroke="#C40282" stroke-width="1.71442"/>
<path d="M45.3664 28.271C45.1798 25.9896 43.7008 22.4652 41.6754 21.1149C39.253 19.5 36.5099 20.9033 34.2933 21.6422C25.7245 24.4984 26.0945 42.6824 29.4723 49.438" stroke="#C40282" stroke-width="1.71442"/>
<path d="M26.7603 21.9429C26.6567 24.5691 27.6019 27.2677 28.1915 29.6263" stroke="#C40282" stroke-width="1.71442"/>
<path d="M19.3777 21.7173C23.7086 27.8366 24.2607 46.4647 17.9814 50.3288" stroke="#C40282" stroke-width="1.71442"/>
<path d="M34.293 21.9429C40.0582 23.2498 40.3819 44.7987 38.5866 49.2868" stroke="#C40282" stroke-width="1.71442"/>
<path d="M20.1322 25.6586C21.0793 25.5185 21.9925 25.2123 22.8938 24.8986C23.6029 24.6297 24.2921 24.3107 24.9785 23.989C25.661 23.6549 26.3198 23.2746 26.961 22.8672C27.3388 22.5524 28.4006 21.9538 26.5775 23.0168C26.5518 22.985 26.5338 22.9448 26.5006 22.9212C26.4993 22.9201 26.4563 22.9616 26.4382 22.9911C26.3833 23.0811 26.3472 23.1865 26.311 23.2844C26.2683 23.3774 26.1955 23.5432 26.1415 23.6201C25.8366 24.0548 25.3906 24.423 24.9942 24.7708C24.2393 25.3633 23.4212 25.8686 22.6223 26.3985C22.2698 26.6301 21.9257 26.8736 21.6378 27.1841C21.5446 27.2846 21.3954 27.4687 21.3075 27.5753C21.206 27.731 20.9009 28.0054 21.0388 28.2247C21.0557 28.2515 21.0836 28.2701 21.1057 28.2928C21.163 28.3004 21.2206 28.3267 21.2775 28.3163C21.5801 28.2622 22.374 27.834 22.4558 27.7929C22.8075 27.6161 23.1564 27.4337 23.5054 27.2517C24.179 26.9003 24.8494 26.5428 25.5215 26.1884C26.0939 25.8951 26.6607 25.5824 27.2637 25.3539C27.3425 25.3239 27.4225 25.2971 27.5041 25.276C27.5413 25.2662 27.5801 25.2645 27.6183 25.2623C27.6315 25.2614 27.5921 25.2683 27.5784 25.2711C27.4927 25.3083 27.4069 25.3457 27.3211 25.383C27.36 25.3426 27.49 25.2406 27.4378 25.2614C27.1174 25.3893 26.8151 25.5586 26.5045 25.709C25.4121 26.2379 25.2959 26.283 24.0775 27.0303C23.8402 27.1758 23.6197 27.3472 23.3909 27.5056C22.9874 27.8273 22.7579 27.9914 22.399 28.3431C22.2909 28.4491 22.1747 28.5509 22.0914 28.6774C22.0366 28.7607 21.9296 28.8832 21.9933 28.96C22.2501 29.2697 23.2454 29.2476 23.4577 29.2649C26.356 29.3321 22.8607 29.2562 25.6752 29.3015C25.9796 29.3064 26.2846 29.3026 26.5884 29.3234C26.7953 29.3376 27.0064 29.3464 27.2049 29.4061C27.2962 29.434 27.4385 29.4836 27.4332 29.5789C27.4266 29.6901 27.2662 29.7264 27.1826 29.8002C26.0319 30.5804 24.8036 31.2409 23.671 32.0491C22.9778 32.5437 22.5976 32.8822 21.9564 33.4199C21.6661 33.6874 21.1327 34.1611 20.8549 34.4765C20.7512 34.5942 20.579 34.6975 20.5745 34.8542C20.571 34.9808 20.7162 35.0886 20.8359 35.1298C21.2025 35.2558 22.3482 35.1736 22.6263 35.1643C23.5523 35.1407 24.4756 35.0287 25.4022 35.0185C25.5466 35.0169 25.6915 35.0204 25.8351 35.036C26.0256 35.0562 26.0095 35.03 26.0204 35.1262C25.969 35.1443 25.9131 35.1525 25.8666 35.1804C25.7663 35.2409 25.681 35.3236 25.5842 35.3897C25.4493 35.4819 25.3103 35.5682 25.1717 35.6549C24.7506 35.9184 24.3216 36.1687 23.9001 36.4315C23.8305 36.4926 23.7243 36.5283 23.6914 36.6149C23.6701 36.6713 23.7105 36.7613 23.7684 36.7787C23.9251 36.8257 24.096 36.7973 24.2593 36.7864C24.5185 36.7688 24.7751 36.7236 25.0331 36.6931C25.9383 36.5863 25.8175 36.6015 26.6899 36.5076C26.7014 36.5069 27.3538 36.4186 27.4944 36.5273C27.5245 36.5508 27.4436 36.5847 27.4124 36.606C27.3191 36.6692 27.2178 36.7197 27.1222 36.7794C26.96 36.8807 26.8002 36.9858 26.6392 37.0889C26.4558 37.2029 26.2724 37.3169 26.0891 37.4309C25.8695 37.5722 25.4583 37.8161 25.2534 38.0145C25.1981 38.0681 25.1207 38.1285 25.1233 38.2054C25.1321 38.4642 25.7794 38.4053 25.9131 38.4056C25.8984 38.393 26.3507 38.3444 26.373 38.4992C26.3829 38.5669 26.3205 38.6271 26.28 38.6822C26.1854 38.8101 26.08 38.9303 25.9696 39.045C25.5251 39.5075 25.0374 39.9326 24.5632 40.363C23.8115 41.0663 22.9985 41.7006 22.2332 42.3882C22.107 42.5016 21.5408 42.9988 21.448 43.2409C21.4157 43.3253 21.4699 43.4203 21.4808 43.51C21.6289 43.5527 21.7711 43.6346 21.9251 43.6371C22.239 43.6425 22.55 43.5747 22.8611 43.5332C23.841 43.4024 24.8124 43.1708 25.8004 43.1124C24.9522 43.7267 24.0485 44.2566 23.1671 44.8208C23.0231 44.9227 22.5925 45.194 22.4739 45.3814C22.434 45.4444 22.3902 45.5439 22.4367 45.6019C22.6481 45.8638 23.3819 45.6969 23.5147 45.6774C23.9307 45.6162 24.3416 45.5243 24.7551 45.4477C25.586 45.3102 26.4069 45.1178 27.2368 44.9756C27.5214 44.9269 27.8055 44.8617 28.094 44.8518C28.1782 44.8489 28.3176 44.8548 28.3316 44.938C28.3441 45.0127 28.1915 44.9965 28.1242 45.0311C27.9775 45.1065 27.8346 45.1892 27.6899 45.2682C27.743 45.2178 27.9189 45.0969 27.8491 45.1179C27.6131 45.1888 27.4003 45.3216 27.1755 45.4228C26.4718 45.7395 25.7159 46.0526 25.1456 46.5927C25.0931 46.6425 25.1976 46.7278 25.2238 46.7953C25.3453 46.959 25.7636 46.9738 25.8695 47.1334C25.8886 47.1623 25.8099 47.2491 25.8399 47.2326C26.0375 47.1253 26.388 47.0729 26.3942 46.8481C26.3996 46.6487 26.0275 47.0045 25.8441 47.0828C25.3117 47.2802 24.7715 47.4561 24.2463 47.6727C24.0956 47.7349 23.7794 47.8691 23.6266 47.969C23.2908 48.1887 22.9645 48.4225 22.6334 48.6492C22.6793 48.7148 22.7075 48.7979 22.7716 48.8459C22.9339 48.9674 23.3393 49.0644 23.5117 49.1074C23.9251 49.2106 24.3389 49.2804 24.7611 49.3325C25.1582 49.3691 25.5569 49.3089 25.9538 49.3254C26.0074 49.3273 26.059 49.3434 26.1119 49.3511C26.1327 49.354 26.0339 49.3514 26.0506 49.339C26.2964 49.1529 26.5605 48.9921 26.8154 48.8186C26.3973 48.9787 25.9633 49.0913 25.5413 49.24C25.4688 49.2657 25.3931 49.2849 25.326 49.3224C24.9809 49.5145 24.6467 49.7255 24.307 49.927C24.3644 49.9806 24.4081 50.0546 24.4791 50.0883C24.6072 50.1492 25.1719 50.1786 25.2344 50.183C25.7777 50.2207 26.322 50.2482 26.8657 50.2813C27.0085 50.2867 27.1514 50.2922 27.2943 50.2977L28.0997 49.715C27.9515 49.7146 27.8033 49.714 27.655 49.714C27.1167 49.6932 26.5782 49.6735 26.0428 49.6098C25.9029 49.5934 25.7635 49.5715 25.6248 49.547C25.5457 49.5328 25.4697 49.5011 25.3897 49.4951C25.3645 49.4931 25.3437 49.5137 25.3206 49.523C25.0464 49.674 24.7677 49.8169 24.4981 49.9761C24.4248 50.0193 24.6517 49.9023 24.7309 49.8712C25.1333 49.713 25.5555 49.6078 25.9697 49.4868C26.3283 49.2696 26.7093 49.0858 27.0453 48.8352C27.0775 48.8111 27.0228 48.745 26.9856 48.729C26.9225 48.7017 26.8483 48.7203 26.7796 48.7219C26.3801 48.7307 25.9809 48.7834 25.5806 48.752C25.0081 48.6939 24.1908 48.6001 23.6959 48.2957C23.6658 48.2771 23.6456 48.2454 23.6208 48.2204C23.3544 48.3539 23.0932 48.4984 22.8215 48.6209C22.7242 48.6647 23.0021 48.5063 23.0967 48.4568C23.7318 48.1244 24.4221 47.9114 25.095 47.6725C25.8392 47.4019 25.9985 47.3842 26.8058 46.7362C26.8539 46.698 26.8023 46.605 26.7642 46.5567C26.6499 46.4119 26.3127 46.3862 26.1654 46.2653C25.9742 45.9504 26.202 46.2648 25.4093 46.5108C25.2469 46.5612 25.7037 46.3402 25.856 46.2645C26.7642 45.813 27.7356 45.496 28.5859 44.9251C28.7561 44.8219 28.9549 44.7552 29.0965 44.6153C29.163 44.5496 29.2441 44.4053 29.1724 44.3454C29.0697 44.2596 28.9037 44.3257 28.771 44.3434C28.4573 44.385 28.1488 44.4595 27.8384 44.5212C25.753 44.9357 27.5371 44.6082 25.3623 44.9928C24.5094 45.1031 24.3628 45.1597 23.6224 45.1544C23.5478 45.1539 23.4584 45.1768 23.4 45.1303C23.3634 45.1014 23.3918 45.0307 23.4181 44.9921C23.5403 44.8104 23.889 44.5898 24.037 44.483C24.6155 44.1082 25.2082 43.7563 25.7862 43.3811C25.9007 43.3068 26.5711 42.8903 26.6787 42.692C26.7093 42.6355 26.6306 42.573 26.606 42.5135C25.3455 42.7168 24.0293 43.0801 22.7512 43.0661C22.6379 43.0647 22.5276 43.0295 22.4158 43.0111C22.3978 42.9557 22.3443 42.9001 22.3622 42.8448C22.4411 42.6049 22.9006 42.1842 23.0249 42.0672C23.7591 41.3764 24.5518 40.7489 25.2932 40.0661C25.4852 39.8971 26.6371 38.8907 26.8588 38.6688C26.9775 38.55 27.3734 38.205 27.271 37.9244C27.2027 37.7373 26.8376 37.8025 26.7424 37.804C26.3024 37.7999 26.5541 37.8101 26.1821 37.7816C26.1553 37.7796 26.1013 37.8035 26.1017 37.7768C26.1026 37.7243 26.1471 37.6791 26.1845 37.6421C26.3868 37.4428 26.73 37.2418 26.9519 37.0972C27.0066 37.0633 28.0006 36.4507 28.061 36.4075C28.1775 36.3242 28.3138 36.2501 28.386 36.1263C28.4199 36.0679 28.3991 35.9617 28.34 35.9284C28.0655 35.7736 27.6329 36.1264 27.396 35.9826C26.6191 36.0758 25.8464 36.1535 25.0653 36.1992C24.9473 36.2063 24.8294 36.2135 24.7114 36.2189C24.6955 36.2197 24.655 36.2315 24.6649 36.2191C24.7114 36.1612 24.776 36.12 24.8315 36.0705C25.2427 35.8088 25.6625 35.5618 26.0759 35.3036C26.1834 35.2364 26.7359 34.8942 26.8566 34.7728C26.912 34.717 26.9331 34.6355 26.9714 34.5668C26.9419 34.5362 26.9238 34.4875 26.883 34.4745C26.7402 34.4291 26.1534 34.4865 26.1215 34.4892C25.1771 34.5627 24.235 34.6764 23.2864 34.6842C22.789 34.6765 22.2088 34.7077 21.7098 34.583C21.6269 34.5622 21.4844 34.5453 21.4848 34.4598C21.4854 34.3237 21.6255 34.2257 21.7119 34.1205C21.9707 33.8053 22.4333 33.3823 22.7125 33.1148C23.3759 32.5463 23.6364 32.2996 24.3706 31.7763C25.0037 31.3251 25.7862 30.8507 26.4485 30.4483C26.7797 30.2471 27.1181 30.0575 27.4459 29.8506C27.6732 29.7072 27.8907 29.5488 28.1132 29.3978C28.1737 29.2716 28.3343 29.1535 28.2949 29.0192C28.2604 28.9014 28.0789 28.8921 27.9581 28.87C27.7313 28.8285 27.498 28.8361 27.2675 28.8317C26.2296 28.8115 25.1884 28.8873 24.1528 28.773C23.8774 28.7303 23.5992 28.7028 23.3266 28.645C23.1937 28.6165 23.0314 28.6165 22.9402 28.5159C22.8882 28.4584 22.9665 28.3587 23.008 28.2933C23.082 28.1775 23.1839 28.0815 23.2805 27.9836C23.6143 27.6453 23.8252 27.4943 24.2053 27.1863C24.4234 27.0345 24.6415 26.8824 24.8598 26.7307C24.892 26.7083 24.9222 26.6815 24.9574 26.6638C26.0681 26.0986 27.1971 25.6428 28.2782 25.0081C28.3863 24.9446 28.4623 24.8378 28.5543 24.7526C28.5319 24.7061 28.5336 24.6366 28.4877 24.6133C28.439 24.5886 28.3783 24.6215 28.3259 24.6368C28.2278 24.6652 28.1326 24.7032 28.0383 24.7424C27.3833 25.0151 26.764 25.3654 26.1369 25.6946C25.5308 26.0188 24.7172 26.4572 24.1103 26.7681C23.4798 27.0912 22.8267 27.4413 22.1547 27.6791C22.1192 27.6916 22.0813 27.696 22.0446 27.7048C22.0331 27.7001 22.0183 27.7001 22.0101 27.6911C21.921 27.5927 22.2304 27.2274 22.2754 27.1655C22.3879 27.0306 22.4821 26.9129 22.6045 26.786C22.8866 26.4936 23.2197 26.2616 23.5552 26.0351C24.3497 25.5006 25.1651 24.9932 25.9158 24.3972C26.3324 24.0237 26.7766 23.6463 27.1069 23.1903C27.1821 23.0865 27.2427 22.9493 27.2985 22.8323C27.3412 22.7454 27.3602 22.6987 27.4101 22.6207C27.4369 22.5785 27.4718 22.5418 27.498 22.4993C27.5073 22.484 27.5254 22.4687 27.521 22.4512C27.5101 22.4053 27.4778 22.3679 27.4561 22.3262C27.1278 22.5139 26.7979 22.699 26.4712 22.8894C26.2899 22.995 26.1387 23.1538 25.9566 23.2591C25.6415 23.4584 24.9806 23.8422 26.43 23.0027C26.4904 22.9676 26.3084 23.071 26.2469 23.1039C26.096 23.1849 25.942 23.2603 25.7916 23.3423C25.0853 23.6863 24.3714 24.0178 23.644 24.3148C22.7955 24.6211 21.93 24.9179 21.0273 25.0096L20.1313 25.6606L20.1322 25.6586Z" fill="#C40282"/>
<path d="M36.4544 23.6473C37.2183 23.4677 37.9915 23.3232 38.7593 23.1578C39.3001 23.0552 39.8216 22.889 40.3477 22.7393C40.5908 22.681 40.8363 22.6281 41.0844 22.5897C41.2109 22.5701 41.3593 22.5411 41.4876 22.5695C41.4592 22.5591 41.4311 22.5268 41.403 22.5378C41.3141 22.5728 41.2455 22.6398 41.1694 22.6941C41.0381 22.7879 40.9097 22.8852 40.781 22.9819C40.2703 23.3659 39.7756 23.7641 39.2828 24.1666C38.7837 24.6277 38.1418 25.0767 37.7798 25.6424C37.7656 25.685 37.7338 25.7258 37.7377 25.7702C37.7639 26.1078 38.3967 26.0004 38.5591 25.9873C38.9605 25.955 39.9191 25.8098 40.2827 25.7575C41.146 25.6366 42.0031 25.4774 42.8675 25.3629C43.0547 25.3383 43.494 25.2704 43.7214 25.323C43.7701 25.334 43.7994 25.3798 43.8383 25.4081C43.5214 25.9424 42.9487 26.321 42.4269 26.6805C42.1518 26.8701 41.4057 27.3507 41.1146 27.5394C40.6851 27.8456 40.2145 28.1153 39.8186 28.4596C39.7036 28.5596 39.5166 28.7294 39.5029 28.8954C39.4974 28.9668 39.545 29.0334 39.5659 29.1024C39.7434 29.1516 39.915 29.224 40.0984 29.2497C40.487 29.3038 41.4887 29.2961 41.8543 29.2945C42.5723 29.2905 43.2863 29.2704 44.0039 29.2926C44.0691 29.2997 44.4608 29.3216 44.5623 29.3905C44.669 29.4629 44.4985 29.638 44.4746 29.659C44.1114 29.9795 43.4451 30.3663 43.0766 30.5985C41.9318 31.27 40.7706 31.919 39.6503 32.6241C39.1624 32.9312 38.5478 33.2983 38.1493 33.7226C38.0356 33.8437 37.9717 33.9966 37.8828 34.1336C37.9014 34.2342 37.8708 34.3536 37.9381 34.4354C38.222 34.7795 39.2671 34.6376 39.6248 34.6102C40.2207 34.5642 40.8153 34.5061 41.411 34.4586C41.4619 34.4607 42.1502 34.4154 42.2872 34.5965C42.3184 34.6375 42.2517 34.6931 42.2178 34.7326C42.149 34.813 42.064 34.881 41.9832 34.9517C41.7967 35.1149 41.4594 35.3845 41.2688 35.5385C41.156 35.6336 40.7594 35.9625 40.6442 36.0794C40.5783 36.1465 40.4711 36.2055 40.4665 36.2951C40.4512 36.5934 41.1451 36.5102 41.1716 36.5102C41.398 36.5104 41.6239 36.4905 41.85 36.4806C42.1567 36.4659 42.7507 36.427 43.0765 36.4484C43.1925 36.456 43.3212 36.4507 43.4194 36.5071C43.4604 36.5306 43.4287 36.5989 43.4057 36.6375C43.3248 36.7767 42.9384 37.1276 42.864 37.1992C42.503 37.5674 42.0411 37.8689 41.738 38.2839C41.6284 38.434 41.5288 38.598 41.648 38.7732C41.6923 38.8387 41.7797 38.8706 41.8455 38.9193C42.0535 39.0197 42.2922 39.0281 42.5128 39.0896C42.5653 39.1044 42.6386 39.1033 42.6647 39.1466C42.6844 39.1794 42.6341 39.2176 42.6063 39.2454C42.5379 39.3146 42.4554 39.3712 42.38 39.4341C41.881 39.7598 41.3368 40.0219 40.8148 40.315C40.5709 40.4519 40.1813 40.6618 39.9704 40.8623C39.9097 40.92 39.8778 40.9977 39.8315 41.0654C39.8864 41.1229 39.9164 41.2144 39.9963 41.238C40.1662 41.2883 40.3524 41.2692 40.5311 41.2719C40.9309 41.277 41.3305 41.2391 41.7303 41.2445C42.2051 41.2506 42.1086 41.1539 42.2236 41.3963C42.064 41.6709 41.8146 41.8804 41.5775 42.0982C41.5463 42.1271 41.2173 42.3717 41.2708 42.5042C41.3003 42.5766 41.4026 42.6022 41.4686 42.6512C41.6633 42.7258 41.8854 42.7129 42.0825 42.7783C42.1376 42.7964 42.2211 42.8155 42.2278 42.8683C42.2339 42.9153 42.1484 42.9301 42.1054 42.957C41.852 43.1152 41.5862 43.251 41.3215 43.3935C41.4355 43.3304 41.7896 43.1643 41.6635 43.2043C41.4936 43.2585 41.3444 43.3555 41.1878 43.436C40.7732 43.6489 40.3532 43.8541 39.9502 44.0844C39.9026 44.1117 39.8172 44.1593 39.8447 44.2036C39.9656 44.3987 40.3844 44.2825 40.5096 44.2687C40.6588 44.2501 40.8076 44.2282 40.9572 44.2125C41.1097 44.1966 41.4441 44.1032 41.5789 44.2817C41.7461 44.5032 41.223 45.1076 41.1302 45.236C40.8126 45.6847 40.3359 46.0737 40.0224 46.5224C39.9375 46.6438 39.7093 46.9353 39.9664 47.0803C40.1055 47.1587 40.2868 47.1434 40.447 47.175C41.1527 47.181 41.8577 47.1542 42.5633 47.1481C42.7552 47.1467 43.2738 47.1372 43.4983 47.1635C43.5608 47.1705 43.6189 47.1968 43.6792 47.2132C43.6311 47.2061 43.2486 47.4367 43.3394 47.3587C43.4746 47.2425 43.9539 47.1584 43.7969 47.0673C43.6163 46.9627 43.3973 47.2085 43.1959 47.2755C43.1822 47.2804 42.1652 47.6032 42.1042 47.6225C41.7089 47.8258 41.2746 47.9769 40.9183 48.2325C40.8622 48.273 40.9408 48.3855 41.0072 48.4098C41.171 48.4695 41.3581 48.4524 41.5347 48.4573C41.7906 48.4639 42.0466 48.4497 42.3025 48.4442C44.5047 48.3999 41.9095 48.4457 44.0258 48.4098C44.3588 48.4097 44.9301 48.3917 45.2808 48.4508C45.3981 48.4705 45.6963 48.5231 45.7019 48.7046C45.7044 48.7923 45.4775 49.0081 45.4444 49.0438C45.4405 49.0473 45.0448 49.4079 45.0377 49.4148C44.9801 49.4719 44.9071 49.5219 44.8735 49.5929C44.8429 49.6579 44.8243 49.7388 44.8539 49.8043C44.9539 50.0277 45.2316 50.0918 45.4395 50.1807C45.9163 50.3224 46.4132 50.3834 46.9079 50.4462L47.7764 49.8905C47.2932 49.8429 46.8096 49.7924 46.3503 49.6374C46.2388 49.5871 45.9409 49.4981 45.8836 49.3454C45.818 49.1708 46.3669 48.7768 46.4758 48.6423C46.5708 48.5167 46.7427 48.3614 46.6837 48.1793C46.6148 47.9665 46.3058 47.9263 46.1222 47.9051C45.7743 47.8652 45.1161 47.8958 44.7929 47.9041C44.125 47.9189 43.7681 47.9336 43.0992 47.9222C42.8675 47.9182 42.6361 47.9074 42.4048 47.8965C42.2754 47.8905 42.1464 47.8784 42.0172 47.8703C41.9991 47.8693 41.9789 47.861 41.9625 47.8683C41.7321 47.9724 41.51 48.0906 41.2837 48.2018C42.0613 47.9431 41.5665 48.1049 42.3956 47.8414C42.5882 47.7802 42.7886 47.7362 42.973 47.6571C43.4502 47.4525 43.918 47.2294 44.3762 46.9921C44.479 46.939 44.5901 46.8802 44.6508 46.7882C44.6825 46.7406 44.63 46.6788 44.6191 46.624C44.5381 46.6126 44.4579 46.5929 44.3761 46.5896C44.1339 46.5787 43.5822 46.6082 43.3714 46.6147C42.6912 46.6366 42.009 46.6585 41.3291 46.6172C41.2043 46.6019 41.07 46.6162 40.9546 46.5707C40.7314 46.482 40.9338 46.2265 40.9869 46.1455C41.2855 45.6918 41.7489 45.3038 42.0705 44.8637C42.2389 44.6388 42.8038 44.0499 42.5193 43.7241C42.3411 43.52 42.0357 43.6099 41.8171 43.6317C41.6729 43.6459 41.5292 43.664 41.3853 43.6799L41.0343 43.7094C40.9971 43.7345 40.9669 43.7729 40.9223 43.7857C40.8966 43.7928 40.9546 43.7469 40.971 43.7275C40.7732 43.8267 40.5753 43.9259 40.3775 44.0251C39.7528 44.3647 45.3353 41.4932 42.2843 43.0573C42.4568 42.9642 42.6354 42.8797 42.8017 42.7779C42.9047 42.7149 43.3023 42.5294 43.1933 42.3049C43.1264 42.167 42.5839 42.1402 42.4372 42.0844C42.3973 42.0757 42.3357 42.091 42.3175 42.0582C42.2732 41.977 42.493 41.8049 42.5801 41.7215C42.8724 41.4416 43.1291 41.2664 43.2112 40.8673C42.9298 40.6062 43.1039 40.6891 42.5641 40.6939C42.0376 40.6987 41.5024 40.7506 40.9775 40.6857C40.9409 40.6809 40.9084 40.6605 40.8739 40.648C40.9067 40.5976 40.9275 40.5391 40.9718 40.4969C41.172 40.3072 41.5185 40.1188 41.7494 39.9886C42.3007 39.6777 42.8814 39.4075 43.3984 39.0489C43.48 38.9598 43.5929 38.888 43.6434 38.7817C43.6746 38.7158 43.6675 38.6287 43.627 38.5672C43.5947 38.5185 43.5149 38.5136 43.4547 38.4968C43.2456 38.4383 43.0137 38.4486 42.811 38.365C42.7667 38.3404 42.7119 38.3273 42.6741 38.2967C42.6687 38.292 42.6632 38.2869 42.6577 38.2809C42.5529 38.1595 42.6512 38.0061 42.7229 37.9035C43.0128 37.4898 43.4669 37.1905 43.8285 36.8347C43.9573 36.7121 44.1008 36.6009 44.215 36.4669C44.2839 36.3861 44.5833 36.0674 44.3132 35.937C44.1945 35.8796 44.0464 35.9009 43.9118 35.897C43.6729 35.891 42.8744 35.9326 42.6624 35.9419C42.35 35.9467 41.93 35.9665 41.6055 35.9299C41.5672 35.9254 41.4914 35.9254 41.4982 35.8916C41.5129 35.8147 41.5937 35.7608 41.6505 35.702C41.7817 35.5661 42.112 35.2918 42.246 35.1777C42.3324 35.1077 42.9124 34.6413 42.9903 34.5655C43.0845 34.474 43.1958 34.3858 43.2434 34.2685C43.2735 34.1945 43.2708 34.0871 43.2057 34.0348C43.0274 33.8915 42.2278 33.9562 42.1599 33.9571C41.8385 33.9817 40.7481 34.0664 40.4151 34.0844C40.147 34.0992 39.1701 34.1861 38.924 33.9555C38.8665 33.9014 38.8753 33.8125 38.8507 33.741C38.9159 33.6232 38.9565 33.4914 39.0463 33.3877C39.3978 32.9812 39.9536 32.6445 40.4015 32.3574C41.5259 31.6368 42.7015 30.9858 43.8646 30.3186C44.2036 30.1134 45.1598 29.5833 45.5013 29.2349C45.6083 29.1257 45.6643 28.9083 45.4994 28.8078C45.4281 28.7646 45.333 28.7657 45.2476 28.7569C45.1137 28.7433 44.9784 28.746 44.8438 28.7405C44.0976 28.7591 43.3511 28.8024 42.6045 28.8023C42.0449 28.8023 41.524 28.7947 40.9731 28.7088C40.8373 28.6874 40.7079 28.6408 40.5753 28.6069C40.5622 28.5598 40.5283 28.5141 40.5365 28.4663C40.5589 28.3291 40.7294 28.1738 40.8231 28.0905C41.1882 27.7656 41.6161 27.5022 42.0167 27.2164C42.6752 26.783 43.3563 26.3655 43.9786 25.8894C44.1753 25.7389 44.6343 25.3707 44.767 25.125C44.8125 25.0411 44.7949 24.9398 44.8086 24.8472C44.7432 24.8111 44.6874 24.7529 44.6122 24.7396C44.3737 24.6975 43.8319 24.8001 43.6472 24.8308C42.7727 24.976 41.9034 25.1487 41.0215 25.2569C40.4834 25.3226 39.9536 25.3987 39.4111 25.4259C39.3766 25.4276 38.9544 25.4647 38.824 25.3838C38.758 25.3428 38.8215 25.2533 38.8349 25.2179C39.1851 24.6764 39.74 24.2651 40.2179 23.8211C40.717 23.4093 41.2198 23.0086 41.7509 22.6304C41.8976 22.526 42.0492 22.4273 42.1952 22.3222C42.2955 22.25 42.4168 22.194 42.4897 22.0987C42.5176 22.0621 42.4749 22.0103 42.4672 21.9661C42.4349 21.9557 42.4048 21.9382 42.3709 21.9354C42.3162 21.9308 42.2615 21.939 42.2071 21.9442C41.887 21.9748 41.5754 22.0533 41.2586 22.1022C40.7033 22.2522 40.1692 22.4666 39.6001 22.5765C38.8748 22.7425 38.1431 22.8769 37.4066 22.995L36.4531 23.6476L36.4544 23.6473Z" fill="#C40282"/>
<path d="M53.6612 23.9934C54.644 23.7543 55.6388 23.5695 56.6239 23.3394C56.8074 23.2913 56.9909 23.2427 57.1745 23.1944C57.3344 23.1485 57.4936 23.0994 57.6544 23.056C57.7343 23.0346 58.0596 22.9233 58.1987 22.9733C58.2496 22.9913 58.1291 23.1117 58.0701 23.1844C57.233 24.1775 56.2275 25.0141 55.2618 25.8777C54.8783 26.264 54.3859 26.5964 54.0382 27.0197C53.9456 27.1325 53.7826 27.3195 53.9298 27.4816C54.0019 27.561 54.1191 27.5826 54.2138 27.6331C54.9562 27.6708 55.6989 27.6151 56.4387 27.5591C56.6333 27.5443 57.2338 27.4604 57.4847 27.5323C57.5449 27.5498 57.5755 27.6187 57.6209 27.662C57.5847 27.7362 57.5595 27.8164 57.5133 27.8847C57.2769 28.2334 56.9437 28.5743 56.6565 28.8699C55.9093 29.6389 56.2114 29.2922 55.4866 30.0278C55.3392 30.1773 55.1977 30.3326 55.0533 30.4851C54.9929 30.5873 54.8781 30.6732 54.872 30.7918C54.8681 30.873 54.9478 30.9652 55.0278 30.9792C55.3095 31.029 56.1918 30.8139 56.4063 30.7645C56.8738 30.6569 57.3378 30.5346 57.8039 30.4211C57.5014 30.4107 58.3784 30.2784 58.3481 30.4578C58.3366 30.5255 58.2423 30.5455 58.1903 30.5904C58.0874 30.6794 57.9895 30.7744 57.8834 30.8597C57.6428 31.0532 57.3565 31.2473 57.1033 31.4243C57.0483 31.2164 56.7451 31.7301 56.8769 31.7725C57.1401 31.8572 57.826 31.7424 58.0479 31.7183C58.8344 31.6324 58.5149 31.6496 59.2117 31.6509C59.1559 31.7243 59.1104 31.8068 59.0444 31.8711C58.6755 32.2302 58.174 32.583 57.7629 32.8679C56.9847 33.4071 56.1788 33.9081 55.3885 34.4294C55.2161 34.5573 55.0257 34.664 54.871 34.813C54.7123 34.966 54.4925 35.2265 54.7959 35.4098C54.9435 35.499 55.1272 35.511 55.2981 35.5344C55.6124 35.5776 56.2711 35.5672 56.587 35.5678C56.5521 35.6275 57.2079 35.4686 57.2858 35.6919C57.3006 35.7351 57.2274 35.7622 57.1936 35.7927C56.9805 35.9852 56.736 36.1459 56.5026 36.312C56.4138 36.381 56.0066 36.6774 56.2859 36.8303C56.5027 36.949 56.9886 36.8779 57.1761 36.8648C57.3826 36.8506 57.5888 36.8325 57.7952 36.8166C58.0276 36.8063 58.5754 36.7636 58.831 36.8171C58.9945 36.8516 59.1884 36.9329 59.0151 37.1175C58.9205 37.2183 58.7808 37.2661 58.6766 37.3569C58.6026 37.4215 58.8415 37.2504 58.9239 37.1971C58.361 37.5029 57.6471 37.8756 57.1748 38.2454C57.1056 38.2995 57.0563 38.4152 57.0919 38.4956C57.1917 38.721 57.6995 38.7628 57.8467 38.7844C58.0188 38.8102 58.1927 38.8211 58.3656 38.8396C58.6691 38.8953 59.1671 38.8669 59.4527 39.0126C59.4965 39.035 59.5592 39.0703 59.5534 39.1188C59.5458 39.1788 59.4707 39.2071 59.4247 39.2464C59.3372 39.3212 59.244 39.3892 59.1537 39.4607C58.788 39.733 58.3891 39.9605 58.0297 40.2416C58.01 40.2564 57.6453 40.5404 57.6454 40.6542C57.6454 40.7222 57.7264 40.7633 57.7669 40.8178C58.0437 40.9509 58.3569 40.855 58.6438 40.9407C58.698 40.9571 58.7868 40.9752 58.7869 41.0315C58.787 41.1052 58.6941 41.1461 58.6441 41.2001C58.5458 41.3064 58.4428 41.4083 58.3421 41.5125C57.9452 41.8763 57.5096 42.1936 57.0954 42.5365C57.0391 42.583 56.6597 42.871 56.6387 43.0183C56.6283 43.0911 56.6997 43.1522 56.7303 43.219C56.8716 43.248 57.0104 43.2979 57.1545 43.3054C57.3858 43.3174 57.6175 43.2901 57.8488 43.2769C58.0821 43.2632 59.1377 43.1791 59.3957 43.1734C59.9034 43.1619 59.8428 43.044 59.8924 43.3056C59.4818 43.5415 59.7857 43.3598 59.2396 43.7191C59.0603 43.8369 58.876 43.9471 58.7001 44.0699C58.1501 44.4542 57.6374 44.8859 57.1284 45.3218C56.9638 45.4739 56.6477 45.7296 56.535 45.9518C56.4968 46.0275 56.4416 46.1312 56.488 46.2023C56.6436 46.4402 57.258 46.5531 57.4484 46.6003C57.6659 46.6544 57.8858 46.6983 58.1044 46.7473C58.2924 46.796 58.4841 46.8321 58.6682 46.8937C58.7801 46.9315 58.9187 46.9487 58.9891 47.0435C59.0225 47.0883 58.8146 47.1847 58.8594 47.1508C59.0146 47.0333 59.4681 46.9196 59.3206 46.7925C59.152 46.6472 58.8994 46.9371 58.6864 47.0017C58.4672 47.0683 58.245 47.1247 58.0244 47.1862C57.316 47.3762 56.563 47.5174 56.0177 48.079C55.9474 48.1514 56.1768 48.2137 56.2744 48.2392C56.3274 48.2535 57.2751 48.2943 57.2862 48.2948C57.6106 48.3495 58.1731 48.3134 58.471 48.485C58.5115 48.5085 58.556 48.5534 58.5518 48.6C58.5478 48.6465 58.4884 48.6691 58.4517 48.6979C58.3918 48.745 58.3258 48.7836 58.2628 48.8265C58.3366 48.8913 57.8638 48.9617 57.9263 49.0896C58.0325 49.3072 58.4981 49.2876 58.6384 49.2993C58.7725 49.3103 59.4741 49.3576 59.6175 49.3674C60.2542 49.4183 60.8908 49.4791 61.5292 49.505C61.5751 49.503 61.6211 49.5011 61.667 49.499L62.5382 48.8511C62.4901 48.8599 62.4416 48.8686 62.3934 48.8768C61.7334 48.9042 61.0736 48.8227 60.4147 48.7959C60.0425 48.774 59.8249 48.7663 59.4541 48.7217C59.3256 48.7059 59.1991 48.6752 59.0702 48.6631C59.0216 48.6587 58.9484 48.7156 58.9243 48.673C58.859 48.558 59.4176 48.5243 59.2401 48.4329C59.3397 48.3382 59.5296 48.2282 59.4728 48.0428C59.422 47.8771 59.114 47.8362 59.0108 47.8187C58.8484 47.7908 58.209 47.7432 58.0706 47.732C57.8986 47.7189 57.7263 47.7096 57.5547 47.6927C57.4214 47.6795 57.2901 47.6467 57.1563 47.6412C57.1103 47.6393 57.0624 47.65 57.0207 47.6697C56.7555 47.796 56.4765 47.9038 56.2399 48.0778C55.9424 48.2965 57.7838 47.3555 57.2964 47.7454C57.3046 47.7434 58.5009 47.4256 58.5436 47.4059C58.989 47.1996 59.4367 46.9848 59.8349 46.6978C59.894 46.6551 59.8847 46.5272 59.8298 46.479C59.7292 46.3904 59.5765 46.3906 59.447 46.3561C59.2544 46.3047 59.0585 46.2665 58.8643 46.2217C58.4138 46.1113 58.1271 46.0615 57.7051 45.8858C57.612 45.847 57.4985 45.8208 57.4412 45.7378C57.3218 45.5646 57.9373 45.0251 58.0051 44.9662C58.5048 44.529 59.0109 44.1092 59.5608 43.7349C59.6284 43.689 60.5089 43.1398 60.6112 43.0481C60.7012 42.9674 60.7519 42.8515 60.8223 42.7532C60.5227 42.5126 60.7132 42.6063 60.1183 42.6409C59.3046 42.688 58.4792 42.8034 57.6668 42.683C57.5768 42.5547 57.5641 42.5937 57.7248 42.4207C57.8088 42.3303 57.906 42.2532 57.9999 42.1732C58.4122 41.8216 58.8501 41.5005 59.25 41.1341C59.3655 41.0117 59.5063 40.9091 59.5963 40.767C59.6551 40.6745 59.7104 40.5564 59.6837 40.4501C59.6657 40.3785 59.5607 40.3641 59.4899 40.3431C59.2325 40.2668 58.9523 40.3212 58.6942 40.2484C58.5876 40.2129 58.5774 40.2342 58.7171 40.0862C59.1084 39.6719 59.6574 39.4398 60.0929 39.0808C60.1931 38.9909 60.3153 38.9207 60.3933 38.811C60.4452 38.7382 60.4863 38.6412 60.468 38.5538C60.4538 38.487 60.3741 38.4494 60.3119 38.4214C60.2224 38.3809 60.1222 38.3694 60.0252 38.3543C59.8608 38.3286 59.2962 38.2886 59.157 38.2779C58.775 38.2331 58.6077 38.232 58.2488 38.1261C58.1805 38.1059 58.0904 38.1015 58.0527 38.0413C58.0231 37.9943 58.1499 37.8743 58.0948 37.8803C57.9535 37.8962 56.8263 38.526 58.2021 37.7793C58.6654 37.5156 59.1442 37.2773 59.592 36.988C59.7334 36.8966 59.8799 36.7906 59.9608 36.6429C60.2834 36.0536 58.701 36.2591 58.5526 36.2586C58.1532 36.2805 57.8733 36.3018 57.4813 36.3002C57.3156 36.2994 57.1629 36.31 57.182 36.2253C57.2061 36.1189 57.4096 35.9779 57.465 35.9314C57.6386 35.8048 58.0799 35.5223 58.1668 35.3302C58.3755 34.8685 57.43 35.0384 57.34 35.0206C56.8871 35.0215 56.5561 35.0392 56.1082 34.9752C55.9713 34.9556 55.8303 34.937 55.7048 34.8791C55.6469 34.8523 55.5765 34.7957 55.5823 34.7323C55.6053 34.4824 56.1114 34.1834 56.208 34.1092C56.9758 33.5891 57.7593 33.0919 58.5241 32.5676C58.7453 32.416 59.7763 31.7236 59.9824 31.429C60.0487 31.3342 59.9889 31.1978 59.9928 31.0822C59.0629 31.1112 59.8307 31.0751 58.7976 31.1634C58.597 31.1809 58.3956 31.1874 58.1951 31.2066C58.0793 31.2175 57.9651 31.2438 57.8491 31.2525C57.8393 31.2532 57.8212 31.2405 57.8278 31.2339C57.885 31.1706 57.9556 31.1208 58.0195 31.0643C58.2273 30.9153 58.6113 30.6452 58.8021 30.4862C58.8857 30.4165 59.3261 30.1086 59.2416 29.8707C59.1627 29.6487 58.4914 29.9255 58.5348 29.863C57.8316 30.0486 57.1325 30.2442 56.4129 30.3572C56.2554 30.3818 56.097 30.4075 55.9376 30.4102C55.8938 30.4111 55.816 30.4123 55.8136 30.3687C55.8085 30.279 55.8858 30.2041 55.9219 30.1219C56.0502 29.9776 56.1741 29.8293 56.3068 29.689C56.6221 29.3557 57.1531 28.848 57.4686 28.5324C57.6576 28.3432 58.2924 27.7307 58.4512 27.4419C58.5076 27.3395 58.4944 27.2122 58.5162 27.0973C58.4407 27.0486 58.3778 26.9694 58.2898 26.9513C58.054 26.9032 57.329 27.0132 57.1584 27.029C56.4701 27.0928 55.7748 27.1387 55.0855 27.0585C55.0155 27.029 54.933 27.0203 54.8756 26.9705C54.7585 26.8695 54.9221 26.6882 54.9648 26.6336C55.2853 26.2231 55.7213 25.9143 56.0816 25.5436C56.921 24.7806 56.4033 25.2474 57.2956 24.4527C57.8011 24.0025 58.3182 23.5568 58.7785 23.0587C58.8683 22.9616 58.9494 22.8567 59.0348 22.7558C59.0731 22.6695 59.1439 22.5912 59.1496 22.4971C59.1622 22.287 58.9138 22.3368 58.816 22.3544C58.6824 22.3785 58.5537 22.4245 58.4235 22.4628C57.0053 22.8807 58.9252 22.3358 57.3662 22.774C56.432 22.9957 55.4914 23.1872 54.5404 23.3217L53.6611 23.994L53.6612 23.9934Z" fill="#C40282"/>
</svg>
