<svg width="516" height="270" viewBox="0 0 516 270" fill="none" xmlns="http://www.w3.org/2000/svg">
<path d="M361.786 183.108L362.469 182C362.469 182 372.483 184.401 374.531 186.616C374.531 186.616 379.538 184.031 382.269 184.401L385 184.77L376.579 190.864L365.883 190.125L361.786 183.108Z" fill="#F2F2F2"/>
<path d="M361.331 182.071L352 192.597L365.428 197.952C365.428 197.952 366.683 198.506 367.648 197.952L376.579 194.628L385 184.841L376.579 188.35C376.579 188.35 375.669 186.872 373.848 187.611L361.331 182.071Z" fill="#6C63FF"/>
<path opacity="0.1" d="M257.674 270C115.364 270 6.10352e-05 265.008 6.10352e-05 258.851C6.10352e-05 252.693 115.364 247.701 257.674 247.701C399.983 247.701 515.347 252.693 515.347 258.851C515.347 265.008 399.983 270 257.674 270Z" fill="#77CB5C"/>
<path d="M211.738 247.664C143.348 247.664 87.9064 192.223 87.9064 123.832C87.9064 55.4415 143.348 0 211.738 0C280.129 0 335.57 55.4415 335.57 123.832C335.57 192.223 280.129 247.664 211.738 247.664Z" fill="#3F3D56"/>
<path d="M141.312 86.4198L178.39 124.142C178.455 124.204 178.507 124.279 178.542 124.362C178.578 124.445 178.596 124.535 178.596 124.625C178.596 124.715 178.578 124.804 178.542 124.888C178.507 124.971 178.455 125.046 178.39 125.108L152.374 152.771C151.752 153.398 151.329 154.195 151.158 155.061C150.987 155.928 151.075 156.826 151.413 157.643C151.75 158.459 152.321 159.158 153.055 159.651C153.788 160.144 154.65 160.41 155.533 160.414C156.722 160.412 157.862 159.94 158.705 159.101L184.584 131.537C184.716 131.407 184.894 131.334 185.079 131.334C185.265 131.334 185.443 131.407 185.575 131.537L191.88 137.905C194.462 140.545 197.545 142.643 200.949 144.074C204.353 145.506 208.009 146.243 211.701 146.242C215.464 146.225 219.185 145.458 222.648 143.986C226.111 142.514 229.246 140.367 231.869 137.67L237.927 131.476C238.059 131.345 238.237 131.272 238.423 131.272C238.608 131.272 238.786 131.345 238.918 131.476L264.735 158.977C265.15 159.393 265.644 159.724 266.187 159.949C266.73 160.174 267.312 160.29 267.9 160.29C268.488 160.29 269.07 160.174 269.613 159.949C270.157 159.724 270.65 159.393 271.065 158.977C271.483 158.563 271.814 158.07 272.041 157.526C272.267 156.983 272.383 156.401 272.383 155.812C272.383 155.224 272.267 154.641 272.041 154.098C271.814 153.555 271.483 153.061 271.065 152.647L245.149 125.046C245.034 124.911 244.971 124.74 244.971 124.563C244.971 124.386 245.034 124.214 245.149 124.08L282.227 86.3579C282.322 86.2621 282.444 86.1968 282.577 86.1702C282.709 86.1437 282.847 86.1572 282.971 86.209C283.096 86.2607 283.203 86.3485 283.278 86.461C283.352 86.5736 283.392 86.7059 283.392 86.8411V162.322C283.382 165.24 282.218 168.035 280.155 170.099C278.092 172.162 275.296 173.325 272.379 173.335H151.136C148.218 173.325 145.422 172.162 143.359 170.099C141.296 168.035 140.132 165.24 140.123 162.322V86.903C140.116 86.7625 140.154 86.6235 140.23 86.5052C140.306 86.3869 140.417 86.2949 140.547 86.242C140.677 86.1891 140.821 86.1778 140.958 86.2096C141.095 86.2415 141.218 86.3149 141.312 86.4198Z" fill="#77CB5C"/>
<path d="M211.738 137.286C209.225 137.31 206.732 136.829 204.408 135.872C202.084 134.914 199.977 133.499 198.21 131.711L144.21 76.7447C146.127 75.1568 148.535 74.2814 151.024 74.2671H272.354C274.844 74.2752 277.253 75.1514 279.167 76.7447L225.155 131.711C223.404 133.489 221.315 134.898 219.011 135.856C216.706 136.813 214.234 137.3 211.738 137.286Z" fill="#77CB5C"/>
<path opacity="0.1" d="M213.299 0.0127108C237.806 0.000460499 261.766 7.25715 282.147 20.8647C302.529 34.4723 318.417 53.8193 327.801 76.4582C337.185 99.0971 339.643 124.011 334.865 148.047C330.087 172.084 318.287 194.163 300.959 211.492C283.63 228.821 261.55 240.62 237.514 245.398C213.478 250.176 188.564 247.718 165.925 238.334C143.286 228.95 123.939 213.062 110.332 192.68C96.724 172.299 89.4673 148.339 89.4796 123.832C89.496 90.9983 102.546 59.5139 125.764 36.2967C148.981 13.0796 180.465 0.0291237 213.299 0.0127108ZM213.299 231.2C234.535 231.2 255.293 224.903 272.95 213.106C290.606 201.308 304.368 184.539 312.494 164.92C320.621 145.301 322.747 123.713 318.604 102.886C314.461 82.0584 304.236 62.9272 289.22 47.9115C274.204 32.8958 255.073 22.67 234.246 18.5272C213.418 14.3844 191.83 16.5106 172.211 24.6371C152.592 32.7635 135.824 46.5252 124.026 64.1818C112.228 81.8384 105.931 102.597 105.931 123.832C105.931 152.308 117.243 179.618 137.378 199.753C157.514 219.888 184.823 231.2 213.299 231.2Z" fill="black"/>
<path d="M444.127 238.819C443.395 241.221 442.492 243.568 441.427 245.843C438.377 245.198 435.376 244.342 432.445 243.279C433.023 242.419 433.648 241.592 434.316 240.801C435.043 240.01 435.902 239.352 436.856 238.856C437.871 238.626 438.925 238.626 439.94 238.856C441.328 238.819 442.728 238.844 444.127 238.819Z" fill="#FBBEBE"/>
<path d="M436.844 242.449C437.576 242.12 438.23 241.639 438.76 241.036C439.29 240.433 439.684 239.724 439.916 238.955C440.388 237.412 441.186 235.988 442.257 234.78C442.483 234.811 442.697 234.899 442.879 235.036C443.061 235.172 443.205 235.353 443.298 235.561C443.521 235.957 443.657 236.403 443.905 236.8C444.4 237.506 445.268 237.852 445.887 238.447C446.506 239.042 446.878 239.971 447.547 240.578C448.467 241.256 449.547 241.682 450.681 241.817C452.405 242.206 454.071 242.818 455.636 243.638C456.209 243.98 456.821 244.255 457.457 244.455C458.164 244.561 458.882 244.561 459.588 244.455L464.469 244.109C464.879 244.041 465.298 244.041 465.708 244.109C466.206 244.289 466.63 244.631 466.91 245.08C467.191 245.529 467.313 246.059 467.257 246.586C467.199 247.109 467.031 247.613 466.764 248.065C466.497 248.518 466.137 248.909 465.708 249.212C464.86 249.821 463.924 250.298 462.933 250.625C458.683 252.225 454.308 253.468 449.851 254.341V255.307C446.747 256.831 443.336 257.623 439.879 257.624C439.625 257.639 439.371 257.597 439.135 257.5C438.819 257.263 438.599 256.92 438.516 256.534C437.342 253.112 436.654 249.543 436.472 245.93C436.392 245.012 436.464 244.087 436.683 243.192C436.955 242.312 436.038 242.684 436.881 242.337" fill="#2F2E41"/>
<path d="M343.238 224.052C357.708 224.919 372.004 220.683 386.498 220.237C388.297 220.118 390.104 220.23 391.874 220.571C393.718 221.071 395.503 221.764 397.201 222.64C404.969 226.257 413.008 229.255 421.036 232.241L430.265 235.672C432.06 236.483 434.006 236.905 435.976 236.911C436.856 236.911 437.933 236.725 438.454 237.456C439.953 239.686 439.247 242.944 438.256 245.446C437.933 246.252 437.388 247.131 436.521 247.218C435.913 247.177 435.317 247.026 434.762 246.772C433.09 246.326 431.417 247.453 429.683 247.639C427.552 247.862 425.57 246.648 423.551 245.905C420.206 244.666 416.564 244.666 413.046 244.121C407.161 243.142 401.698 240.404 396.594 237.295C394.738 235.972 392.662 234.991 390.462 234.396C387.856 234.089 385.214 234.39 382.744 235.276C376.741 236.97 370.832 238.979 365.042 241.296C362.031 242.607 358.945 243.736 355.8 244.678C348.935 246.474 341.677 246.04 335.075 243.44C332.758 242.523 330.243 240.962 330.119 238.41C330.033 236.985 331.148 235.734 331.878 234.508C332.349 233.727 332.832 232.947 333.34 232.191C335.818 228.599 338.841 223.792 343.238 224.052Z" fill="#2F2E41"/>
<path opacity="0.1" d="M343.238 224.052C357.708 224.919 372.004 220.683 386.498 220.237C388.297 220.118 390.104 220.23 391.874 220.571C393.718 221.071 395.503 221.764 397.201 222.64C404.969 226.257 413.008 229.255 421.036 232.241L430.265 235.672C432.06 236.483 434.006 236.905 435.976 236.911C436.856 236.911 437.933 236.725 438.454 237.456C439.953 239.686 439.247 242.944 438.256 245.446C437.933 246.252 437.388 247.131 436.521 247.218C435.913 247.177 435.317 247.026 434.762 246.772C433.09 246.326 431.417 247.453 429.683 247.639C427.552 247.862 425.57 246.648 423.551 245.905C420.206 244.666 416.564 244.666 413.046 244.121C407.161 243.142 401.698 240.404 396.594 237.295C394.738 235.972 392.662 234.991 390.462 234.396C387.856 234.089 385.214 234.39 382.744 235.276C376.741 236.97 370.832 238.979 365.042 241.296C362.031 242.607 358.945 243.736 355.8 244.678C348.935 246.474 341.677 246.04 335.075 243.44C332.758 242.523 330.243 240.962 330.119 238.41C330.033 236.985 331.148 235.734 331.878 234.508C332.349 233.727 332.832 232.947 333.34 232.191C335.818 228.599 338.841 223.792 343.238 224.052Z" fill="black"/>
<path d="M416.341 239.488C414.078 240.256 411.795 240.967 409.491 241.619C408.252 239.501 405.774 238.026 405.242 235.598C405.211 235.493 405.211 235.381 405.242 235.276C405.303 235.173 405.393 235.091 405.502 235.041C407.158 234.131 408.993 233.595 410.878 233.468C412.365 233.381 413.046 234.929 413.715 236.02C413.975 236.503 415.734 239.724 416.341 239.488Z" fill="#FBBEBE"/>
<path d="M413.169 237.977C413.847 237.862 414.492 237.608 415.066 237.23C415.64 236.853 416.129 236.36 416.502 235.784C416.812 235.226 417.158 234.471 417.803 234.545C418.447 234.619 418.657 235.288 418.794 235.871C419.223 238.066 419.849 240.218 420.664 242.3C421.482 244.393 422.868 246.217 424.666 247.565C425.508 248.147 426.437 248.581 427.267 249.2C427.954 249.809 428.687 250.364 429.46 250.86C430.007 251.105 430.57 251.312 431.145 251.48C431.991 251.798 432.798 252.214 433.548 252.719C434.216 253.102 434.782 253.642 435.196 254.292C435.4 254.617 435.519 254.989 435.541 255.372C435.562 255.756 435.486 256.138 435.32 256.484C435.146 256.77 434.914 257.014 434.638 257.202C434.363 257.39 434.05 257.517 433.721 257.575C433.06 257.674 432.388 257.674 431.727 257.575C429.088 257.389 426.45 257.154 423.811 256.918C422.699 256.846 421.593 256.693 420.503 256.46L418.781 255.989C417.798 255.729 416.788 255.579 415.771 255.543C415.475 255.516 415.176 255.545 414.891 255.63C414.284 255.828 413.851 256.435 413.219 256.559C412.799 256.599 412.376 256.544 411.98 256.398C410.055 255.985 408.09 255.782 406.121 255.791C405.253 255.791 404.238 255.568 403.841 254.8C403.346 253.833 404.163 252.756 404.498 251.715C404.658 251.053 404.749 250.376 404.77 249.696C404.918 248.011 405.412 246.375 406.22 244.889C406.889 243.65 407.805 242.288 407.335 240.975C407.1 240.557 406.949 240.099 406.889 239.624C407.075 237.493 411.955 238.249 413.169 237.977Z" fill="#2F2E41"/>
<path d="M364.93 200.837C367.498 199.711 369.556 197.671 370.703 195.114C370.939 194.568 371.137 193.986 371.372 193.441C372.128 191.595 373.308 189.953 374.816 188.647C374.975 188.478 375.167 188.344 375.38 188.252C375.593 188.161 375.823 188.114 376.055 188.114C376.285 188.184 376.492 188.313 376.656 188.49C376.819 188.666 376.932 188.883 376.984 189.118C377.122 189.622 377.156 190.149 377.083 190.666C376.957 191.884 376.75 193.093 376.464 194.284L375.758 197.48C375.664 197.969 375.519 198.446 375.324 198.904C375.022 199.44 374.623 199.915 374.147 200.304C373.503 200.899 372.846 201.469 372.19 202.039C371.81 202.369 371.395 202.656 370.951 202.893C370.259 203.223 369.519 203.441 368.758 203.537C365.802 203.922 362.982 205.01 360.532 206.709C360.532 206.709 360.532 204.566 360.532 204.33C360.564 203.708 360.779 203.108 361.152 202.608C362.287 201.782 363.569 201.181 364.93 200.837Z" fill="#FBBEBE"/>
<path opacity="0.1" d="M364.93 200.837C367.498 199.711 369.556 197.671 370.703 195.114C370.939 194.568 371.137 193.986 371.372 193.441C372.128 191.595 373.308 189.953 374.816 188.647C374.975 188.478 375.167 188.344 375.38 188.252C375.593 188.161 375.823 188.114 376.055 188.114C376.285 188.184 376.492 188.313 376.656 188.49C376.819 188.666 376.932 188.883 376.984 189.118C377.122 189.622 377.156 190.149 377.083 190.666C376.957 191.884 376.75 193.093 376.464 194.284L375.758 197.48C375.664 197.969 375.519 198.446 375.324 198.904C375.022 199.44 374.623 199.915 374.147 200.304C373.503 200.899 372.846 201.469 372.19 202.039C371.81 202.369 371.395 202.656 370.951 202.893C370.259 203.223 369.519 203.441 368.758 203.537C365.802 203.922 362.982 205.01 360.532 206.709C360.532 206.709 360.532 204.566 360.532 204.33C360.564 203.708 360.779 203.108 361.152 202.608C362.287 201.782 363.569 201.181 364.93 200.837Z" fill="black"/>
<path d="M335.471 176.383C333.528 176.383 331.953 174.796 331.953 172.84C331.953 170.883 333.528 169.297 335.471 169.297C337.415 169.297 338.99 170.883 338.99 172.84C338.99 174.796 337.415 176.383 335.471 176.383Z" fill="#2F2E41"/>
<path d="M337.651 170.709C338.593 170.483 339.586 170.625 340.426 171.105C340.833 171.467 341.158 171.91 341.38 172.406C342.168 173.761 342.784 175.21 343.214 176.717C343.523 177.956 343.573 179.356 343.969 180.632C344.688 182.985 346.534 184.98 346.744 187.433C346.843 188.535 346.658 189.824 347.463 190.567C347.66 190.738 347.871 190.891 348.095 191.025C348.652 191.397 349.125 191.883 349.482 192.45C349.725 192.955 350.056 193.413 350.461 193.8C351.179 194.333 352.369 194.283 352.715 195.039C353.062 195.795 352.158 196.823 352.369 197.715C352.579 198.607 353.36 198.78 353.917 199.276C354.574 199.969 355.035 200.824 355.255 201.753C356.432 201.98 357.645 201.948 358.809 201.66C359.972 201.371 361.059 200.832 361.994 200.081C361.177 202.564 360.82 205.175 360.941 207.786C360.88 208.204 360.903 208.63 361.009 209.039C361.115 209.447 361.303 209.83 361.561 210.165C358.766 210.373 355.998 210.854 353.298 211.602C352.128 211.992 350.863 211.992 349.693 211.602C349.066 211.266 348.504 210.821 348.033 210.289C346.546 208.778 344.985 207.13 344.626 205.036C344.537 203.853 344.516 202.666 344.564 201.481C344.423 200.011 344.119 198.561 343.66 197.158C342.875 194.244 342.349 191.268 342.086 188.263C341.925 186.405 340.315 184.918 339.472 183.308C337.887 180.173 336.252 176.915 336.14 173.397C336.091 172.257 336.487 170.833 337.651 170.709Z" fill="#2F2E41"/>
<path opacity="0.1" d="M337.651 170.709C338.593 170.483 339.586 170.625 340.426 171.105C340.833 171.467 341.158 171.91 341.38 172.406C342.168 173.761 342.784 175.21 343.214 176.717C343.523 177.956 343.573 179.356 343.969 180.632C344.688 182.985 346.534 184.98 346.744 187.433C346.843 188.535 346.658 189.824 347.463 190.567C347.66 190.738 347.871 190.891 348.095 191.025C348.652 191.397 349.125 191.883 349.482 192.45C349.725 192.955 350.056 193.413 350.461 193.8C351.179 194.333 352.369 194.283 352.715 195.039C353.062 195.795 352.158 196.823 352.369 197.715C352.579 198.607 353.36 198.78 353.917 199.276C354.574 199.969 355.035 200.824 355.255 201.753C356.432 201.98 357.645 201.948 358.809 201.66C359.972 201.371 361.059 200.832 361.994 200.081C361.177 202.564 360.82 205.175 360.941 207.786C360.88 208.204 360.903 208.63 361.009 209.039C361.115 209.447 361.303 209.83 361.561 210.165C358.766 210.373 355.998 210.854 353.298 211.602C352.128 211.992 350.863 211.992 349.693 211.602C349.066 211.266 348.504 210.821 348.033 210.289C346.546 208.778 344.985 207.13 344.626 205.036C344.537 203.853 344.516 202.666 344.564 201.481C344.423 200.011 344.119 198.561 343.66 197.158C342.875 194.244 342.349 191.268 342.086 188.263C341.925 186.405 340.315 184.918 339.472 183.308C337.887 180.173 336.252 176.915 336.14 173.397C336.091 172.257 336.487 170.833 337.651 170.709Z" fill="black"/>
<path d="M340.946 227.1C343.957 225.663 346.162 223 348.602 220.708C353.248 216.335 358.934 213.275 363.827 209.15C367.073 206.437 370.021 203.278 373.527 200.998C376.668 199.007 380.224 197.766 383.921 197.369C384.328 197.275 384.752 197.275 385.16 197.369C385.628 197.568 386.034 197.889 386.337 198.298C387.916 200.08 389.323 202.009 390.536 204.058C396.73 214.588 405.538 223.433 412.835 233.22C413.002 233.423 413.125 233.66 413.194 233.914C413.225 234.293 413.129 234.672 412.922 234.991L411.435 237.89C410.605 239.526 409.267 241.421 407.483 241.099C406.68 240.866 405.961 240.406 405.414 239.773L398.749 233.393L391.763 226.716C387.674 222.814 383.512 218.813 380.836 213.808C378.755 217.425 375.051 219.791 372.524 223.099C371.557 224.338 370.765 225.738 369.897 227.075C368.522 229.206 366.949 231.213 365.388 233.27L357.373 243.49C356.357 244.933 355.1 246.19 353.657 247.206C351.68 248.282 349.477 248.872 347.227 248.928C344.216 249.197 341.194 249.304 338.171 249.25C335.857 249.343 333.551 248.92 331.42 248.011C330.358 247.545 329.451 246.785 328.803 245.822C328.156 244.86 327.796 243.733 327.765 242.573C327.889 241.373 328.283 240.217 328.917 239.191C331.816 234.025 335.558 229.665 340.946 227.1Z" fill="#2F2E41"/>
<path d="M333.303 178.018C331.805 178.018 330.59 176.798 330.59 175.293C330.59 173.788 331.805 172.567 333.303 172.567C334.801 172.567 336.016 173.788 336.016 175.293C336.016 176.798 334.801 178.018 333.303 178.018Z" fill="#E8E8F0"/>
<path d="M333.898 173.248C333.293 174.465 333.186 175.869 333.601 177.163C334.028 178.433 334.615 179.645 335.347 180.768C335.977 181.925 336.737 183.006 337.614 183.989C333.427 184.187 329.376 182.552 325.697 180.57C322.724 178.972 319.763 177.002 318.177 174.016C318.65 174.129 319.142 174.141 319.62 174.051C320.098 173.962 320.552 173.772 320.952 173.496C321.751 172.947 322.465 172.283 323.071 171.526L325.164 169.173C325.639 168.655 326.055 168.085 326.403 167.475C326.863 166.641 327.058 165.686 326.96 164.738C327.795 165.608 328.726 166.381 329.735 167.042C331.234 168.02 332.882 168.727 334.393 169.693C334.914 170.04 336.103 170.585 335.793 171.279C335.483 171.972 334.319 172.505 333.898 173.248Z" fill="#FBBEBE"/>
<path opacity="0.1" d="M333.898 173.248C333.293 174.465 333.186 175.869 333.601 177.163C334.028 178.433 334.615 179.645 335.347 180.768C335.977 181.925 336.737 183.006 337.614 183.989C333.427 184.187 329.376 182.552 325.697 180.57C322.724 178.972 319.763 177.002 318.177 174.016C318.65 174.129 319.142 174.141 319.62 174.051C320.098 173.962 320.552 173.772 320.952 173.496C321.751 172.947 322.465 172.283 323.071 171.526L325.164 169.173C325.639 168.655 326.055 168.085 326.403 167.475C326.863 166.641 327.058 165.686 326.96 164.738C327.795 165.608 328.726 166.381 329.735 167.042C331.234 168.02 332.882 168.727 334.393 169.693C334.914 170.04 336.103 170.585 335.793 171.279C335.483 171.972 334.319 172.505 333.898 173.248Z" fill="black"/>
<path d="M333.848 173.658C334.272 174.255 334.5 174.969 334.5 175.702C334.5 176.434 334.272 177.148 333.848 177.746C333.724 177.894 333.278 178.823 333.093 178.836C333.002 178.828 332.913 178.802 332.832 178.76C332.751 178.717 332.68 178.659 332.622 178.588C331.669 177.595 330.784 176.54 329.971 175.429C329.141 174.321 327.948 173.541 326.601 173.224C324.932 173.16 323.292 173.672 321.956 174.673C321.334 174.957 320.787 175.381 320.358 175.912C320.059 176.458 319.881 177.063 319.837 177.684C319.432 181.423 319.275 185.185 319.367 188.945C319.295 191.66 319.474 194.376 319.899 197.059C320.172 198.434 320.568 199.784 320.754 201.184C320.899 202.417 320.957 203.659 320.927 204.901V210.079C320.961 211.029 320.894 211.98 320.729 212.916C320.482 214.043 319.949 215.096 319.59 216.199C319.219 217.465 318.966 218.763 318.834 220.076L318.128 225.428C317.905 227.113 317.731 228.958 318.76 230.383C319.218 230.99 319.825 231.486 320.296 232.093C322.042 234.372 321.534 237.63 322.216 240.417C322.79 242.458 323.974 244.273 325.61 245.62C326.193 246.198 326.896 246.64 327.669 246.916C328.442 247.192 329.265 247.295 330.082 247.218C332.263 246.81 333.563 244.543 334.158 242.399C334.753 240.256 334.963 237.927 336.252 236.119C337.434 234.75 338.832 233.582 340.389 232.662C341.965 231.729 343.123 230.225 343.623 228.463C343.759 227.682 343.623 226.877 343.759 226.084C343.875 225.086 344.257 224.138 344.865 223.339C345.473 222.539 346.285 221.917 347.215 221.538C348.33 221.104 349.693 220.943 350.337 219.927C348.742 218.929 347.579 217.368 347.079 215.554C346.586 213.753 346.32 211.897 346.286 210.029L345.914 203.835C345.741 201.048 345.667 198.298 344.44 195.795C343.895 194.68 343.201 193.627 342.644 192.525C341.888 190.975 341.247 189.373 340.724 187.731C339.832 185.179 338.94 182.627 338.147 180.05C337.838 178.799 337.363 177.595 336.735 176.47C336.066 175.305 335.099 173.905 333.848 173.658Z" fill="#77CB5C"/>
<path d="M347.661 214.092H346.013L345.667 211.614C345.622 211.117 345.505 210.629 345.32 210.165C345.048 209.673 344.728 209.208 344.366 208.778C342.755 206.486 342.867 203.451 342.471 200.663C341.752 196.981 340.535 193.413 338.853 190.059L335.657 182.936C335.366 182.353 335.134 181.743 334.963 181.115C334.829 180.421 334.763 179.716 334.765 179.009C334.765 177.906 334.418 173.893 334.381 172.815C334.381 172.406 335.285 172.629 335.471 172.27C335.868 171.477 336.413 173.62 337.168 174.091C337.878 174.633 338.395 175.388 338.643 176.246C339.336 178.03 339.757 179.963 340.402 181.734C340.962 183.583 341.99 185.256 343.387 186.59C344.044 187.16 344.799 187.619 345.419 188.238C347.401 190.195 347.599 193.305 347.661 196.104C347.711 197.814 348.033 214.092 347.661 214.092Z" fill="#2F2E41"/>
<path d="M323.95 170.696C324.716 171.097 325.379 171.668 325.888 172.367C326.398 173.065 326.739 173.871 326.886 174.723C327.169 176.431 327.669 178.096 328.373 179.678C330.38 183.171 335.496 184.187 336.921 187.965C337.279 189.236 337.47 190.548 337.49 191.868C337.738 194.581 338.63 197.195 338.903 199.895C339.039 201.997 338.989 204.108 338.754 206.201L336.958 227.533C336.614 230.671 336.794 233.845 337.49 236.923C335.649 237.186 333.772 236.875 332.114 236.032C330.442 235.264 328.905 234.211 327.283 233.319C324.508 231.782 321.435 230.705 318.995 228.661C318.557 228.312 318.181 227.893 317.88 227.422C317.507 226.526 317.257 225.585 317.137 224.622C316.926 223.867 316.657 223.13 316.331 222.417C315.437 220.263 314.66 218.064 314.002 215.826C313.555 214.347 313.2 212.841 312.937 211.317C312.739 210.078 312.627 208.84 312.528 207.601C312.399 205.68 312.016 203.784 311.389 201.964C309.834 197.614 308.953 193.052 308.775 188.436C308.727 187.772 308.772 187.105 308.911 186.454C309.183 185.658 309.549 184.897 310.001 184.187C310.744 182.787 311.24 181.251 311.884 179.827C313.641 176.689 316.159 174.043 319.205 172.133C320.642 171.155 322.327 170.114 323.95 170.696Z" fill="#2F2E41"/>
<path d="M335.471 172.034C329.642 172.034 324.916 167.281 324.916 161.418C324.916 155.554 329.642 150.801 335.471 150.801C341.3 150.801 346.026 155.554 346.026 161.418C346.026 167.281 341.3 172.034 335.471 172.034Z" fill="#FBBEBE"/>
<path d="M320.94 182.725C321.783 183.908 322.47 185.195 322.984 186.553C324.223 189.229 326.329 191.509 327.357 194.345C328.385 197.182 328.398 200.824 330.516 203.141C330.94 203.496 331.261 203.958 331.445 204.479C331.453 204.803 331.487 205.126 331.544 205.445C331.854 206.288 333.229 206.325 333.489 207.192C333.563 207.44 333.489 207.712 333.613 207.96C333.824 208.518 334.567 208.604 335.05 208.939C336.078 209.633 335.868 211.243 336.598 212.246C336.917 212.62 337.329 212.903 337.793 213.066C338.256 213.229 338.754 213.267 339.237 213.176C340.198 212.979 341.122 212.632 341.975 212.147C342.282 211.979 342.618 211.874 342.966 211.838C343.377 211.852 343.774 211.99 344.106 212.234C345.04 212.922 345.789 213.831 346.286 214.88C346.784 215.928 347.013 217.083 346.955 218.242C346.813 220.564 346.259 222.841 345.32 224.969C345.215 225.338 345.034 225.68 344.787 225.972C344.418 226.262 343.972 226.435 343.504 226.471C343.036 226.506 342.569 226.402 342.161 226.171C341.352 225.691 340.492 225.304 339.596 225.019C337.961 224.721 336.363 225.849 334.703 225.749C333.494 225.571 332.356 225.07 331.408 224.3C329.741 223.306 328.244 222.051 326.973 220.584C326.254 219.63 325.734 218.552 325.09 217.536C324.27 216.301 323.381 215.114 322.426 213.981L316.331 206.548C315.726 205.842 315.179 205.088 314.696 204.293C314.155 203.209 313.739 202.066 313.457 200.886C312.806 198.923 312.39 196.89 312.219 194.829C312.181 193.124 312.33 191.421 312.665 189.749C312.85 188.085 313.267 186.455 313.903 184.906C315.229 182.106 318.45 179.827 320.94 182.725Z" fill="#2F2E41"/>
<path d="M330.631 165.315C329.917 164.773 329.926 163.56 330.65 162.607C331.374 161.653 332.54 161.32 333.254 161.862C333.967 162.404 333.959 163.617 333.235 164.57C332.51 165.524 331.345 165.857 330.631 165.315Z" fill="#FBBEBE"/>
<path d="M381.53 196.212L371.346 201.977C371.105 202.113 370.82 202.148 370.554 202.074C370.287 202.001 370.061 201.824 369.924 201.584C369.788 201.343 369.752 201.058 369.826 200.791C369.9 200.524 370.076 200.298 370.317 200.161L380.501 194.397L382.86 194.259L381.53 196.212Z" fill="#E0BF24"/>
<path opacity="0.1" d="M370.303 201.862C370.167 201.621 370.132 201.335 370.206 201.069C370.28 200.802 370.457 200.575 370.698 200.439L380.887 194.66L382.657 194.558L382.866 194.251L380.507 194.389L370.322 200.153C370.082 200.29 369.905 200.516 369.832 200.783C369.758 201.05 369.793 201.335 369.93 201.575C370.043 201.776 370.22 201.933 370.433 202.023C370.385 201.973 370.342 201.919 370.303 201.862Z" fill="white"/>
<path d="M381.525 196.186L380.497 194.371L382.431 194.259L382.854 194.235L382.381 194.93L381.525 196.186Z" fill="#EFC8C4"/>
<path d="M382.384 194.935C382.334 194.909 382.29 194.874 382.252 194.831C382.23 194.806 382.215 194.775 382.21 194.742C382.205 194.709 382.209 194.674 382.222 194.644C382.247 194.608 382.278 194.577 382.314 194.552C382.353 194.516 382.383 194.471 382.403 194.422C382.422 194.373 382.431 194.32 382.427 194.267L382.852 194.241L382.384 194.935Z" fill="#727A9C"/>
<path d="M315.91 171.42C318.275 170.123 319.376 167.211 319.454 164.517C319.533 161.824 318.879 159.158 318.827 156.463C318.801 155.912 318.848 155.359 318.967 154.82C319.163 154.152 319.469 153.52 319.872 152.95C322.948 148.243 328.294 144.932 333.926 144.88C334.74 144.87 335.548 145.018 336.305 145.317C336.887 145.55 337.077 145.521 337.189 146.235C338.523 145.796 339.97 145.842 341.273 146.365C342.564 146.889 343.768 147.605 344.845 148.489C345.485 148.965 346.088 149.486 346.651 150.051C349.627 153.13 350.312 157.876 349.45 162.069C349.17 163.432 350.515 164.747 351.628 165.585C352.741 166.422 354.026 167.191 354.572 168.471C355.098 169.702 354.809 171.11 354.915 172.444C355.034 173.706 355.503 174.909 356.27 175.918C357.038 176.927 358.072 177.701 359.256 178.155C359.015 178.443 358.699 178.662 358.344 178.787C357.988 178.912 357.605 178.939 357.236 178.864C356.464 178.702 355.743 178.359 355.13 177.863C352.827 176.158 351.178 173.716 350.461 170.944C350.134 172.429 350.261 173.96 350.273 175.48C350.244 177.177 350.557 178.862 351.193 180.435C351.84 182.016 353.024 183.319 354.538 184.114C353.078 184.828 351.469 184.31 350.232 183.257C348.995 182.204 348.264 180.675 347.754 179.134C346.924 176.622 346.587 173.974 346.763 171.335C345.405 173.618 344.908 176.31 345.363 178.927C345.838 181.594 347.233 184.012 349.305 185.761C345.692 185.73 342.138 184.836 338.942 183.154C338.116 182.78 337.389 182.221 336.816 181.519C335.787 180.094 332.333 178.203 332.622 176.469C332.85 175.099 333.528 173.065 334.51 172.081C334.802 171.793 336.496 171.626 336.906 171.613C339.897 171.325 342.667 169.825 344.263 167.282C345.382 165.501 346.123 163.466 346.123 161.563C346.122 160.065 345.797 158.584 345.171 157.223C344.544 155.862 343.631 154.651 342.493 153.675C341.355 152.699 340.02 151.979 338.578 151.565C337.136 151.152 335.622 151.054 334.138 151.279C332.655 151.504 331.238 152.046 329.984 152.868C328.73 153.69 327.668 154.773 326.872 156.043C326.075 157.313 325.562 158.739 325.369 160.225C325.175 161.71 325.305 163.22 325.749 164.651C326.104 165.803 326.642 166.386 326.642 167.282C326.82 168.669 326.968 170.937 327.354 172.281C328.097 174.865 329.355 177.501 331.684 178.848C330.901 179.276 329.996 179.295 329.109 179.393C326.187 179.715 323.113 179.644 320.468 178.362C317.823 177.08 315.721 174.35 315.91 171.42Z" fill="#55493C"/>
<path d="M361.375 205.507C362.646 204.84 363.798 203.965 364.782 202.918C365.228 202.398 365.599 201.816 366.02 201.295C367.169 200.059 368.662 199.196 370.307 198.818C371.933 198.46 373.597 198.298 375.262 198.335C376.38 198.26 377.501 198.394 378.57 198.731C379.102 198.909 379.582 199.218 379.965 199.629C380.348 200.04 380.622 200.541 380.762 201.085C380.807 201.758 380.677 202.432 380.384 203.04C380.091 203.648 379.645 204.169 379.09 204.553C378.123 205.347 376.98 205.899 375.758 206.164C374.762 206.341 373.757 206.461 372.747 206.523C366.826 207.143 361.536 210.363 356.345 213.299C351.786 215.893 347.137 218.304 342.396 220.534C342.213 219.117 342.134 217.689 342.161 216.26C342.161 215.195 342.248 213.56 343.251 212.928C344.678 212.33 346.165 211.886 347.686 211.602C350.743 210.604 353.727 209.395 356.618 207.985C358.253 207.279 359.826 206.412 361.375 205.507Z" fill="#FBBEBE"/>
</svg>
