<svg width="311" height="173" viewBox="0 0 311 173" fill="none" xmlns="http://www.w3.org/2000/svg">
<path d="M289.857 2.25363H180.515V1.68109C180.515 1.23524 180.338 0.80765 180.023 0.492386C179.708 0.177122 179.28 0 178.834 0H132.617C132.171 7.0813e-06 131.743 0.177123 131.428 0.492386C131.113 0.807649 130.936 1.23525 130.936 1.68109V2.25363H21.1434C19.1819 2.25363 17.3006 3.03286 15.9136 4.4199C14.5265 5.80694 13.7473 7.68817 13.7473 9.64974V159.372C13.7473 161.334 14.5265 163.215 15.9136 164.602C17.3006 165.989 19.1819 166.768 21.1434 166.768H289.857C291.818 166.768 293.7 165.989 295.087 164.602C296.474 163.215 297.253 161.334 297.253 159.372V9.64974C297.253 7.68817 296.474 5.80694 295.087 4.4199C293.7 3.03286 291.818 2.25363 289.857 2.25363V2.25363Z" fill="#3F3D56"/>
<path d="M27.0253 17.9944C26.8418 17.9946 26.6659 18.0677 26.5361 18.1975C26.4064 18.3272 26.3334 18.5032 26.3333 18.6867V160.702C26.3335 160.885 26.4064 161.061 26.5362 161.191C26.6659 161.32 26.8418 161.393 27.0253 161.394H283.975C284.158 161.393 284.334 161.32 284.464 161.191C284.594 161.061 284.667 160.885 284.667 160.702V18.6867C284.667 18.5032 284.594 18.3272 284.464 18.1974C284.334 18.0676 284.158 17.9946 283.975 17.9944H27.0253Z" fill="white"/>
<path d="M155.275 11.2681C156.768 11.2681 157.979 10.0573 157.979 8.56372C157.979 7.07015 156.768 5.85938 155.275 5.85938C153.781 5.85938 152.571 7.07015 152.571 8.56372C152.571 10.0573 153.781 11.2681 155.275 11.2681Z" fill="white"/>
<path d="M302.177 156.678H276.444V154.02C276.444 153.874 276.28 153.756 276.077 153.756H267.254C267.051 153.756 266.886 153.874 266.886 154.02V156.678H261.372V154.02C261.372 153.874 261.208 153.756 261.005 153.756H252.182C251.979 153.756 251.814 153.874 251.814 154.02V156.678H246.3V154.02C246.3 153.874 246.136 153.756 245.933 153.756H237.11C236.907 153.756 236.742 153.874 236.742 154.02V156.678H231.228V154.02C231.228 153.874 231.064 153.756 230.861 153.756H222.038C221.835 153.756 221.67 153.874 221.67 154.02V156.678H216.156V154.02C216.156 153.874 215.991 153.756 215.788 153.756H206.966C206.763 153.756 206.598 153.874 206.598 154.02V156.678H201.084V154.02C201.084 153.874 200.919 153.756 200.716 153.756H191.894C191.691 153.756 191.526 153.874 191.526 154.02V156.678H186.012V154.02C186.012 153.874 185.847 153.756 185.644 153.756H116.533C116.33 153.756 116.165 153.874 116.165 154.02V156.678H110.651V154.02C110.651 153.874 110.487 153.756 110.284 153.756H101.461C101.258 153.756 101.093 153.874 101.093 154.02V156.678H95.5792V154.02C95.5792 153.874 95.4146 153.756 95.2116 153.756H86.3889C86.1858 153.756 86.0213 153.874 86.0213 154.02V156.678H80.5071V154.02C80.5071 153.874 80.3425 153.756 80.1395 153.756H71.3168C71.1137 153.756 70.9492 153.874 70.9492 154.02V156.678H65.435V154.02C65.435 153.874 65.2704 153.756 65.0674 153.756H56.2447C56.0417 153.756 55.8771 153.874 55.8771 154.02V156.678H50.3629V154.02C50.3629 153.874 50.1983 153.756 49.9953 153.756H41.1726C40.9695 153.756 40.805 153.874 40.805 154.02V156.678H35.2908V154.02C35.2908 153.874 35.1262 153.756 34.9232 153.756H26.1005C25.8974 153.756 25.7329 153.874 25.7329 154.02V156.678H8.82269C3.95006 156.678 0 159.517 0 163.02V165.888C0 169.391 3.95005 172.23 8.82269 172.23H302.177C307.05 172.23 311 169.391 311 165.888V163.02C311 159.517 307.05 156.678 302.177 156.678Z" fill="#3F3D56"/>
<path d="M226.259 43.2544H29.9045V123.355H226.259V43.2544Z" fill="#3F3D56"/>
<path d="M58.1248 73.0746H43.4856C42.4866 67.2993 42.4866 61.3954 43.4856 55.6201H58.1248C56.4756 61.3214 56.4756 67.3733 58.1248 73.0746V73.0746Z" fill="#BD338E"/>
<path d="M70.7981 80.5094H85.4373C86.4363 74.7341 86.4363 68.8302 85.4373 63.0549H70.7981C72.4473 68.7562 72.4473 74.8081 70.7981 80.5094V80.5094Z" fill="#E0BF24"/>
<path d="M103.347 54.9026C105.751 67.0175 106.436 79.4108 105.38 91.7167C105.103 94.9208 104.706 98.1115 104.191 101.289C103.956 102.733 103.689 104.171 103.414 105.608C103.256 106.431 102.925 107.457 103.443 108.232C104.452 109.742 107.908 109.348 109.431 109.397C112.6 109.499 115.773 109.517 118.942 109.572L128.478 109.738L133.07 109.818C134.634 109.846 136.347 110.088 137.899 109.888C139.942 109.625 139.444 107.486 139.413 105.896C139.352 102.754 139.268 99.6131 139.162 96.4723C138.741 84.0258 137.965 71.598 136.835 59.189C136.691 57.6059 136.781 55.7119 136.354 54.1812C136.182 53.5623 136.01 53.3834 135.338 53.2723C133.799 53.0176 131.964 53.2858 130.407 53.2966L125.198 53.3328L104.018 53.4802C103.88 53.485 103.75 53.5431 103.654 53.6423C103.558 53.7415 103.504 53.874 103.504 54.0119C103.504 54.1498 103.558 54.2823 103.654 54.3815C103.75 54.4806 103.88 54.5387 104.018 54.5435L121.379 54.4227L129.018 54.3695L133.184 54.3405C134.041 54.3346 134.841 54.0753 135.378 55.0175C135.718 55.6137 135.579 57.1045 135.643 57.7982C136.681 68.9233 137.433 80.0701 137.901 91.2386C138.018 94.0295 138.117 96.821 138.198 99.6133C138.231 100.777 138.262 101.94 138.29 103.104C138.306 103.802 138.322 104.5 138.336 105.198C138.351 105.918 138.649 107.33 138.387 107.991C137.83 109.402 135.344 108.795 134.129 108.774L129.891 108.7L121.415 108.552L112.938 108.404C111.537 108.379 110.134 108.369 108.733 108.309C108.269 108.289 107.803 108.267 107.339 108.234C105.958 108.135 104.47 108.462 104.306 106.553C104.205 105.374 104.849 103.749 105.05 102.57C105.278 101.239 105.484 99.9048 105.67 98.567C106.017 96.0676 106.294 93.5599 106.5 91.0439C107.473 78.8625 106.757 66.6051 104.372 54.6199C104.24 53.9493 103.215 54.2332 103.347 54.9026V54.9026Z" fill="#F1F1F1"/>
<path d="M173.17 54.9026C175.574 67.0175 176.259 79.4108 175.203 91.7167C174.926 94.9208 174.529 98.1115 174.014 101.289C173.779 102.733 173.512 104.171 173.237 105.608C173.079 106.431 172.748 107.457 173.266 108.232C174.275 109.742 177.731 109.348 179.254 109.397C182.423 109.499 185.596 109.517 188.765 109.572L198.301 109.738L202.893 109.818C204.457 109.846 206.17 110.088 207.722 109.888C209.765 109.625 209.267 107.486 209.236 105.896C209.175 102.754 209.091 99.6131 208.985 96.4723C208.564 84.0258 207.788 71.598 206.658 59.189C206.514 57.6059 206.604 55.7119 206.177 54.1812C206.005 53.5623 205.833 53.3834 205.161 53.2723C203.622 53.0176 201.787 53.2858 200.23 53.2966L195.021 53.3328L173.841 53.4802C173.703 53.485 173.573 53.5431 173.477 53.6423C173.381 53.7415 173.327 53.874 173.327 54.0119C173.327 54.1498 173.381 54.2823 173.477 54.3815C173.573 54.4806 173.703 54.5387 173.841 54.5435L191.202 54.4227L198.841 54.3695L203.007 54.3405C203.864 54.3346 204.664 54.0753 205.201 55.0175C205.541 55.6137 205.402 57.1045 205.466 57.7982C206.504 68.9233 207.256 80.0701 207.724 91.2386C207.841 94.0295 207.94 96.821 208.021 99.6133C208.054 100.777 208.085 101.94 208.113 103.104C208.129 103.802 208.145 104.5 208.159 105.198C208.174 105.918 208.472 107.33 208.211 107.991C207.653 109.402 205.168 108.795 203.952 108.774L199.714 108.7L191.238 108.552L182.761 108.404C181.36 108.379 179.957 108.369 178.556 108.309C178.092 108.289 177.626 108.267 177.162 108.234C175.781 108.135 174.293 108.462 174.129 106.553C174.028 105.374 174.672 103.749 174.873 102.57C175.101 101.239 175.307 99.9048 175.493 98.567C175.84 96.0676 176.117 93.5599 176.323 91.0439C177.296 78.8625 176.58 66.6051 174.195 54.6199C174.063 53.9493 173.038 54.2332 173.17 54.9026V54.9026Z" fill="#F1F1F1"/>
<path d="M108.236 57.6397H115.269C115.407 57.6349 115.537 57.5768 115.633 57.4776C115.729 57.3785 115.782 57.246 115.782 57.1081C115.782 56.9702 115.729 56.8377 115.633 56.7385C115.537 56.6393 115.407 56.5812 115.269 56.5764H108.236C108.098 56.5812 107.968 56.6393 107.872 56.7385C107.776 56.8377 107.722 56.9702 107.722 57.1081C107.722 57.246 107.776 57.3785 107.872 57.4776C107.968 57.5768 108.098 57.6349 108.236 57.6397V57.6397Z" fill="#F1F1F1"/>
<path d="M108.235 60.0382L114.865 59.7876C115.547 59.7619 115.55 58.6984 114.865 58.7243L108.235 58.9749C107.553 59.0007 107.55 60.0641 108.235 60.0382Z" fill="#F1F1F1"/>
<path d="M108.236 62.0604H114.666C114.804 62.0556 114.934 61.9975 115.03 61.8983C115.126 61.7991 115.179 61.6666 115.179 61.5287C115.179 61.3908 115.126 61.2583 115.03 61.1591C114.934 61.0599 114.804 61.0018 114.666 60.9971H108.236C108.098 61.0018 107.968 61.0599 107.872 61.1591C107.776 61.2583 107.722 61.3908 107.722 61.5287C107.722 61.6666 107.776 61.7991 107.872 61.8983C107.968 61.9975 108.098 62.0556 108.236 62.0604V62.0604Z" fill="#F1F1F1"/>
<path d="M129.544 57.1401C128.101 56.3871 126.791 57.6254 126.588 59.0402C126.488 59.732 126.467 60.6775 126.907 61.2651C127.358 61.8653 128.223 62.1169 128.942 62.1613C130.315 62.246 131.775 61.4803 132.113 60.0748C132.272 59.4508 132.194 58.79 131.895 58.2199C131.595 57.6497 131.096 57.2106 130.492 56.9874C129.844 56.7629 129.565 57.7896 130.209 58.0127C130.507 58.1367 130.757 58.3543 130.921 58.6327C131.085 58.9111 131.155 59.2352 131.119 59.5563C131.076 59.9256 130.915 60.2711 130.658 60.5401C130.402 60.8092 130.064 60.9871 129.698 61.0469C128.82 61.2488 127.791 61.0321 127.622 60.0421C127.495 59.3015 127.897 57.4789 129.007 58.0583C129.613 58.3745 130.151 57.4571 129.544 57.1401V57.1401Z" fill="#F1F1F1"/>
<path d="M178.059 57.6397H185.092C185.23 57.6349 185.36 57.5768 185.456 57.4776C185.552 57.3785 185.605 57.246 185.605 57.1081C185.605 56.9702 185.552 56.8377 185.456 56.7385C185.36 56.6393 185.23 56.5812 185.092 56.5764H178.059C177.921 56.5812 177.791 56.6393 177.695 56.7385C177.599 56.8377 177.545 56.9702 177.545 57.1081C177.545 57.246 177.599 57.3785 177.695 57.4776C177.791 57.5768 177.921 57.6349 178.059 57.6397V57.6397Z" fill="#F1F1F1"/>
<path d="M178.058 60.0382L184.687 59.7876C185.369 59.7619 185.373 58.6984 184.687 58.7243L178.058 58.9749C177.376 59.0007 177.373 60.0641 178.058 60.0382Z" fill="#F1F1F1"/>
<path d="M178.059 62.0604H184.489C184.627 62.0556 184.757 61.9975 184.853 61.8983C184.949 61.7991 185.002 61.6666 185.002 61.5287C185.002 61.3908 184.949 61.2583 184.853 61.1591C184.757 61.0599 184.627 61.0018 184.489 60.9971H178.059C177.921 61.0018 177.791 61.0599 177.695 61.1591C177.599 61.2583 177.545 61.3908 177.545 61.5287C177.545 61.6666 177.599 61.7991 177.695 61.8983C177.791 61.9975 177.921 62.0556 178.059 62.0604V62.0604Z" fill="#F1F1F1"/>
<path d="M199.367 57.1401C197.924 56.3871 196.614 57.6254 196.41 59.0402C196.311 59.732 196.289 60.6775 196.73 61.2651C197.18 61.8653 198.046 62.1169 198.765 62.1613C200.137 62.246 201.598 61.4803 201.935 60.0748C202.095 59.4508 202.017 58.79 201.718 58.2199C201.418 57.6497 200.918 57.2106 200.314 56.9874C199.666 56.7629 199.388 57.7896 200.032 58.0127C200.33 58.1367 200.58 58.3543 200.744 58.6327C200.908 58.9111 200.977 59.2352 200.941 59.5563C200.899 59.9256 200.737 60.2711 200.481 60.5401C200.224 60.8092 199.887 60.9871 199.52 61.0469C198.643 61.2488 197.614 61.0321 197.445 60.0421C197.318 59.3015 197.72 57.4789 198.83 58.0583C199.436 58.3745 199.974 57.4571 199.367 57.1401V57.1401Z" fill="#F1F1F1"/>
<path d="M109.643 67.8914C117.378 67.9727 125.106 67.7339 132.826 67.1749L132.313 66.5019C131.049 69.7038 131.084 73.0786 131.252 76.4658C131.294 77.3144 131.56 78.4588 131.388 79.2994C131.171 80.3564 130.222 80.1037 129.279 80.1342C127.2 80.2015 125.121 80.2498 123.041 80.2791C121.077 80.3069 119.113 80.3178 117.149 80.3119C116.225 80.309 115.3 80.3025 114.376 80.2923C113.291 80.2802 112.057 80.5953 111.777 79.3381C111.597 78.5328 111.778 77.4736 111.778 76.6455L111.781 73.6162L111.785 67.5577C111.78 67.4199 111.722 67.2893 111.622 67.1935C111.523 67.0977 111.391 67.0442 111.253 67.0442C111.115 67.0442 110.983 67.0977 110.883 67.1935C110.784 67.2893 110.726 67.4199 110.721 67.5577L110.716 74.9625L110.714 78.3284C110.714 78.9969 110.575 79.8047 110.824 80.4394C111.399 81.8994 113.88 81.3516 115.069 81.3626C117.495 81.3849 119.922 81.3812 122.348 81.3515C124.774 81.3221 127.2 81.2671 129.625 81.1863C130.67 81.1515 132.116 81.3892 132.432 80.1007C132.655 79.1973 132.396 78.0195 132.348 77.0976C132.294 76.0456 132.236 74.9934 132.222 73.9399C132.189 71.4799 132.43 69.0867 133.338 66.7846C133.36 66.7056 133.363 66.6229 133.347 66.5427C133.331 66.4625 133.297 66.387 133.248 66.322C133.198 66.257 133.134 66.2042 133.061 66.1677C132.988 66.1312 132.908 66.112 132.826 66.1116C125.11 66.6705 117.382 66.9093 109.643 66.8281C109.505 66.8329 109.374 66.891 109.279 66.9902C109.183 67.0893 109.129 67.2218 109.129 67.3597C109.129 67.4976 109.183 67.6301 109.279 67.7293C109.374 67.8285 109.505 67.8866 109.643 67.8914L109.643 67.8914Z" fill="#F1F1F1"/>
<path d="M111.847 68.4693C115.158 69.6411 118.387 71.0352 121.51 72.6421C124.312 74.0903 127.981 75.6723 129.909 78.2606C130.314 78.8031 131.237 78.2735 130.827 77.7239C128.858 75.0808 125.468 73.5256 122.62 72.0234C119.237 70.248 115.732 68.7177 112.13 67.444C111.484 67.214 111.206 68.241 111.847 68.4693Z" fill="#F1F1F1"/>
<path d="M132.645 66.5751C129.131 68.0777 126.154 70.9725 123.014 73.1176C119.615 75.4394 116.115 77.6001 112.514 79.5999C111.917 79.9335 112.452 80.8523 113.051 80.518C116.644 78.5113 120.144 76.3506 123.551 74.0357C126.69 71.8911 129.669 68.9954 133.181 67.4932C133.809 67.225 133.268 66.3088 132.645 66.5751V66.5751Z" fill="#F1F1F1"/>
<path d="M179.465 67.8914C187.201 67.9727 194.929 67.7339 202.648 67.1749L202.136 66.5019C200.872 69.7038 200.907 73.0786 201.074 76.4658C201.116 77.3144 201.382 78.4588 201.21 79.2994C200.994 80.3564 200.045 80.1037 199.101 80.1342C197.023 80.2015 194.943 80.2498 192.864 80.2791C190.9 80.3069 188.936 80.3178 186.971 80.3119C186.047 80.309 185.123 80.3025 184.199 80.2923C183.113 80.2802 181.879 80.5953 181.599 79.3381C181.42 78.5328 181.6 77.4736 181.601 76.6455L181.603 73.6162L181.607 67.5577C181.602 67.4199 181.544 67.2893 181.445 67.1935C181.346 67.0977 181.213 67.0442 181.075 67.0442C180.938 67.0442 180.805 67.0977 180.706 67.1935C180.607 67.2893 180.549 67.4199 180.544 67.5577L180.539 74.9625L180.537 78.3284C180.536 78.9969 180.397 79.8047 180.647 80.4394C181.221 81.8994 183.702 81.3516 184.892 81.3626C187.318 81.3849 189.744 81.3812 192.171 81.3515C194.597 81.3221 197.022 81.2671 199.448 81.1863C200.492 81.1515 201.938 81.3892 202.255 80.1007C202.477 79.1973 202.218 78.0195 202.171 77.0976C202.117 76.0456 202.058 74.9934 202.044 73.9399C202.011 71.4799 202.252 69.0867 203.161 66.7846C203.182 66.7056 203.185 66.6229 203.169 66.5427C203.154 66.4625 203.12 66.387 203.07 66.322C203.021 66.257 202.957 66.2042 202.884 66.1677C202.811 66.1312 202.73 66.112 202.648 66.1116C194.932 66.6705 187.205 66.9093 179.465 66.8281C179.327 66.8329 179.197 66.891 179.101 66.9902C179.005 67.0893 178.952 67.2218 178.952 67.3597C178.952 67.4976 179.005 67.6301 179.101 67.7293C179.197 67.8285 179.327 67.8866 179.465 67.8914L179.465 67.8914Z" fill="#F1F1F1"/>
<path d="M181.67 68.4693C184.981 69.6411 188.21 71.0352 191.333 72.6421C194.135 74.0903 197.804 75.6723 199.732 78.2606C200.137 78.8031 201.06 78.2735 200.65 77.7239C198.681 75.0808 195.291 73.5256 192.443 72.0234C189.06 70.248 185.555 68.7177 181.953 67.444C181.307 67.214 181.029 68.241 181.67 68.4693V68.4693Z" fill="#F1F1F1"/>
<path d="M202.468 66.5751C198.954 68.0777 195.977 70.9725 192.837 73.1176C189.438 75.4394 185.938 77.6001 182.337 79.5999C181.74 79.9335 182.275 80.8523 182.874 80.518C186.467 78.5113 189.967 76.3506 193.374 74.0357C196.513 71.8911 199.491 68.9954 203.004 67.4932C203.632 67.225 203.09 66.3088 202.468 66.5751V66.5751Z" fill="#F1F1F1"/>
<path d="M179.465 89.1572C187.201 89.2386 194.929 88.9997 202.648 88.4407L202.136 87.7677C200.872 90.9697 200.907 94.3444 201.074 97.7316C201.116 98.5803 201.382 99.7247 201.21 100.565C200.994 101.622 200.045 101.37 199.101 101.4C197.023 101.467 194.943 101.516 192.864 101.545C190.9 101.573 188.936 101.584 186.971 101.578C186.047 101.575 185.123 101.568 184.199 101.558C183.113 101.546 181.879 101.861 181.599 100.604C181.42 99.7987 181.6 98.7395 181.601 97.9113L181.603 94.8821L181.607 88.8236C181.602 88.6857 181.544 88.5552 181.445 88.4594C181.346 88.3636 181.213 88.31 181.075 88.31C180.938 88.31 180.805 88.3636 180.706 88.4594C180.607 88.5552 180.549 88.6857 180.544 88.8236L180.539 96.2284L180.537 99.5942C180.536 100.263 180.397 101.071 180.647 101.705C181.221 103.165 183.702 102.617 184.892 102.628C187.318 102.651 189.744 102.647 192.171 102.617C194.597 102.588 197.022 102.533 199.448 102.452C200.492 102.417 201.938 102.655 202.255 101.367C202.477 100.463 202.218 99.2853 202.171 98.3635C202.117 97.3115 202.058 96.2593 202.044 95.2058C202.011 92.7458 202.252 90.3525 203.161 88.0504C203.182 87.9715 203.185 87.8888 203.169 87.8086C203.154 87.7284 203.12 87.6529 203.07 87.5879C203.021 87.5229 202.957 87.4701 202.884 87.4336C202.811 87.3971 202.73 87.3779 202.648 87.3774C194.932 87.9363 187.205 88.1752 179.465 88.094C179.327 88.0987 179.197 88.1568 179.101 88.256C179.005 88.3552 178.952 88.4877 178.952 88.6256C178.952 88.7635 179.005 88.896 179.101 88.9952C179.197 89.0944 179.327 89.1525 179.465 89.1572H179.465Z" fill="#F1F1F1"/>
<path d="M181.67 89.7347C184.981 90.9065 188.21 92.3006 191.333 93.9075C194.135 95.3557 197.804 96.9377 199.732 99.526C200.137 100.068 201.06 99.5389 200.65 98.9893C198.681 96.3462 195.291 94.791 192.443 93.2887C189.06 91.5134 185.555 89.983 181.953 88.7094C181.307 88.4794 181.029 89.5064 181.67 89.7347V89.7347Z" fill="#F1F1F1"/>
<path d="M202.468 87.8415C198.954 89.344 195.977 92.2389 192.837 94.3839C189.438 96.7057 185.938 98.8665 182.337 100.866C181.74 101.2 182.275 102.119 182.874 101.784C186.467 99.7777 189.967 97.6169 193.374 95.302C196.513 93.1574 199.491 90.2617 203.004 88.7596C203.632 88.4914 203.09 87.5751 202.468 87.8415V87.8415Z" fill="#F1F1F1"/>
<path d="M111.653 88.3553C118.82 88.4643 125.988 88.4357 133.155 88.2695C133.838 88.2537 133.84 87.1903 133.155 87.2062C125.988 87.3724 118.821 87.401 111.653 87.292C111.515 87.2967 111.384 87.3548 111.289 87.454C111.193 87.5532 111.139 87.6857 111.139 87.8236C111.139 87.9615 111.193 88.094 111.289 88.1932C111.384 88.2924 111.515 88.3505 111.653 88.3553V88.3553Z" fill="#F1F1F1"/>
<path d="M112.256 93.176C119.624 93.2936 126.992 93.2619 134.36 93.0811C135.043 93.0643 135.046 92.0009 134.36 92.0178C126.993 92.1986 119.625 92.2303 112.256 92.1127C111.571 92.1018 111.571 93.1651 112.256 93.176Z" fill="#F1F1F1"/>
<path d="M111.449 98.3817L132.348 97.4112C133.029 97.3795 133.033 96.3161 132.348 96.3479L111.449 97.3184C110.768 97.35 110.764 98.4135 111.449 98.3817Z" fill="#F1F1F1"/>
<path d="M144.003 83.3597H163.895C164.033 83.3549 164.164 83.2968 164.26 83.1976C164.356 83.0984 164.409 82.9659 164.409 82.828C164.409 82.6901 164.356 82.5576 164.26 82.4584C164.164 82.3593 164.033 82.3012 163.895 82.2964H144.003C143.865 82.3012 143.734 82.3593 143.639 82.4584C143.543 82.5576 143.489 82.6901 143.489 82.828C143.489 82.9659 143.543 83.0984 143.639 83.1976C143.734 83.2968 143.865 83.3549 144.003 83.3597V83.3597Z" fill="#F1F1F1"/>
<path d="M163.024 77.2805L166.132 80.1174C166.488 80.4418 167.465 81.1117 167.686 81.5358C168.143 82.4129 167.652 82.2128 166.87 82.5167C164.947 83.2818 163.175 84.3819 161.637 85.766C161.123 86.2192 161.877 86.9689 162.389 86.5178C163.792 85.2568 165.404 84.2498 167.153 83.542C167.779 83.294 168.969 83.1487 169.267 82.4019C169.632 81.4878 168.47 80.8133 167.92 80.3112L163.776 76.5287C163.272 76.0681 162.518 76.818 163.024 77.2805V77.2805Z" fill="#F1F1F1"/>
<path d="M114.747 118.787H129.386C130.385 113.012 130.385 107.108 129.386 101.333H114.747C116.396 107.034 116.396 113.086 114.747 118.787Z" fill="#E0BF24"/>
<path d="M53.7854 105.674H68.4246C69.4236 99.8984 69.4236 93.9945 68.4246 88.2192H53.7854C55.4346 93.9205 55.4346 99.9724 53.7854 105.674V105.674Z" fill="#BD338E"/>
<path d="M146.292 67.3954H160.931C161.93 61.6201 161.93 55.7162 160.931 49.9409H146.292C147.941 55.6422 147.941 61.6941 146.292 67.3954Z" fill="#E0BF24"/>
<path d="M233.525 29.8704H280.585V62.5128H233.525V29.8704Z" fill="white" stroke="#E6E6E6"/>
<path d="M253.4 47.583C253.4 47.583 254.032 51.0309 252.614 52.1549C251.195 53.279 253.812 60.0247 258.16 59.2386C262.507 58.4526 264.268 52.792 264.268 52.792C264.268 52.792 259.921 51.8937 261.532 47.3218L253.4 47.583Z" fill="#EFB7B9"/>
<path opacity="0.1" d="M253.4 47.583C253.4 47.583 254.032 51.0309 252.614 52.1549C251.195 53.279 253.812 60.0247 258.16 59.2386C262.507 58.4526 264.268 52.792 264.268 52.792C264.268 52.792 259.921 51.8937 261.532 47.3218L253.4 47.583Z" fill="black"/>
<path d="M257.241 50.1125C261.215 50.1125 264.436 46.8913 264.436 42.9177C264.436 38.9441 261.215 35.7229 257.241 35.7229C253.268 35.7229 250.047 38.9441 250.047 42.9177C250.047 46.8913 253.268 50.1125 257.241 50.1125Z" fill="#EFB7B9"/>
<path d="M269.065 56.5958V61.4869H245.307V56.8192C245.307 56.2271 245.481 55.6482 245.808 55.1547C246.136 54.6611 246.601 54.2748 247.146 54.0439L247.828 53.7543C249.551 53.0203 251.644 52.1089 252.329 51.7295C252.404 51.6922 252.474 51.6466 252.539 51.5936C252.914 51.2189 252.839 51.7059 252.839 51.7059C252.839 51.7059 252.829 51.7981 252.822 51.9588C252.782 53.0593 252.94 57.3877 258.011 57.0272C262.959 56.6726 263.176 53.3347 263.131 52.3524C263.128 52.2614 263.12 52.1707 263.107 52.0806C263.107 52.0546 263.533 52.1988 264.11 52.4068C265.146 52.7886 266.67 53.4032 267.08 53.6928C267.208 53.7815 267.363 53.876 267.53 53.9694C267.998 54.2302 268.387 54.6113 268.657 55.0731C268.927 55.535 269.069 56.0607 269.067 56.5958H269.065Z" fill="#77CB5C"/>
<path opacity="0.1" d="M264.109 52.4069C263.69 54.3477 262.376 57.9836 257.635 58.0805C252.587 58.1798 252.296 53.1587 252.327 51.7344C252.402 51.697 252.473 51.651 252.538 51.5973C252.913 51.2226 252.838 51.7095 252.838 51.7095C252.838 51.7095 252.201 57.4434 258.01 57.0285C263.818 56.6136 263.106 52.0819 263.106 52.0819C263.106 52.0547 263.532 52.1942 264.109 52.4069Z" fill="black"/>
<path d="M248.725 43.2734C249.198 43.1198 249.762 43.3798 250.025 43.7462C250.289 44.1126 250.326 44.5559 250.358 44.9802C250.671 45.0464 250.847 44.6918 250.875 44.4259C250.994 43.3373 250.999 42.2285 251.365 41.1789C251.73 40.1293 252.528 39.1128 253.755 38.7086C254.172 38.5638 254.618 38.5213 255.055 38.5845C255.314 38.6282 255.558 38.718 255.817 38.7606C256.712 38.9083 257.687 38.484 258.528 38.7795C259.054 38.9651 259.393 39.3941 259.634 39.8244C259.741 40.0554 259.887 40.2667 260.064 40.4496C260.419 40.7688 260.981 40.8527 261.492 40.9532C262.003 41.0536 262.563 41.2262 262.782 41.621C262.979 41.9756 262.834 42.3893 262.767 42.777C262.666 43.3878 262.769 44.015 263.059 44.5618C263.154 44.7415 263.345 44.9448 263.571 44.8868C263.674 44.8522 263.761 44.7817 263.816 44.6883C264.407 43.8609 264.388 42.7876 265.124 42.0489C265.371 41.8018 265.689 41.608 265.929 41.3562C266.111 41.1729 266.244 40.9473 266.317 40.6997C266.39 40.4521 266.4 40.1903 266.346 39.9378C266.214 39.3693 265.755 38.8953 265.393 38.4013C264.916 37.7681 264.568 37.0471 264.37 36.2796C264.335 36.1907 264.335 36.0919 264.37 36.003C264.44 35.9125 264.529 35.8393 264.631 35.789C264.832 35.656 264.977 35.4544 265.04 35.222C265.102 34.9895 265.077 34.7423 264.971 34.5267C264.765 34.0976 264.303 33.7797 263.796 33.5882C263.289 33.3967 262.732 33.3151 262.181 33.2336C261.819 33.2868 261.395 33.0799 261.283 32.7903C261.233 32.6615 261.233 32.522 261.182 32.3932C261.084 32.1461 260.802 31.9712 260.498 31.9109C260.189 31.8603 259.872 31.8826 259.574 31.9759C259.233 32.0717 258.838 32.2123 258.542 32.0492C258.386 31.9606 258.298 31.7998 258.13 31.7277C257.79 31.5823 257.431 31.8755 257.185 32.1178C256.946 32.3702 256.654 32.5661 256.33 32.691C255.989 32.8092 255.568 32.8092 255.274 32.6213C255.037 32.4712 254.919 32.2301 254.731 32.0386C254.423 31.723 253.934 31.5516 253.447 31.5126C252.959 31.4869 252.47 31.5404 251.998 31.671C251.098 31.889 250.239 32.248 249.451 32.7348C249.057 32.9818 248.68 33.2702 248.475 33.6425C248.329 33.9329 248.253 34.2537 248.255 34.5787C248.218 35.5964 248.556 36.6696 249.437 37.3824C248.9 37.607 248.718 38.1566 248.593 38.6447C248.392 39.4225 248.19 40.2144 248.266 41.0087C248.303 41.4189 248.416 41.829 248.355 42.2368C248.327 42.4342 248.258 42.6281 248.275 42.8278C248.297 42.9386 248.352 43.0403 248.432 43.1197C248.512 43.1991 248.614 43.2527 248.725 43.2734V43.2734Z" fill="#454B69"/>
<g opacity="0.1">
<path opacity="0.1" d="M266.242 39.6306C266.164 39.7991 266.059 39.9536 265.931 40.088C265.695 40.3398 265.373 40.5337 265.126 40.7819C264.39 41.5194 264.405 42.5962 263.818 43.4213C263.763 43.5144 263.676 43.5845 263.573 43.6187C263.348 43.6766 263.156 43.4733 263.062 43.2936C262.947 43.0751 262.86 42.8427 262.805 42.6021C262.792 42.662 262.781 42.7223 262.77 42.783C262.668 43.3938 262.771 44.021 263.062 44.5678C263.156 44.7475 263.348 44.9508 263.573 44.8928C263.676 44.8582 263.763 44.7877 263.818 44.6943C264.409 43.8669 264.39 42.7936 265.126 42.0549C265.373 41.8078 265.691 41.614 265.931 41.3622C266.113 41.1789 266.246 40.9533 266.319 40.7057C266.392 40.4581 266.402 40.1963 266.349 39.9438C266.323 39.8362 266.288 39.7313 266.242 39.6306V39.6306Z" fill="black"/>
<path opacity="0.1" d="M264.636 34.5269C264.533 34.5763 264.444 34.6492 264.375 34.7396C264.34 34.8285 264.34 34.9273 264.375 35.0162C264.443 35.2841 264.53 35.5468 264.636 35.8022V35.8022C264.839 35.6681 264.985 35.4638 265.047 35.2285C265.109 34.9932 265.082 34.7433 264.971 34.5269C264.937 34.4565 264.898 34.3892 264.852 34.3259C264.791 34.4034 264.718 34.4711 264.636 34.5269V34.5269Z" fill="black"/>
<path opacity="0.1" d="M249.436 36.1199C248.826 35.6159 248.424 34.9045 248.307 34.1223C248.276 34.2782 248.259 34.4363 248.255 34.5951C248.217 35.3462 248.415 36.0903 248.822 36.7227C248.946 36.4534 249.164 36.2389 249.436 36.1199Z" fill="black"/>
<path opacity="0.1" d="M262.77 41.5086C262.836 41.1209 262.981 40.7084 262.784 40.3526C262.565 39.9578 262.006 39.7841 261.494 39.6848C260.983 39.5855 260.424 39.5004 260.067 39.1813C259.889 38.9983 259.744 38.787 259.636 38.556C259.4 38.1257 259.056 37.6967 258.53 37.5111C257.69 37.2156 256.714 37.6399 255.82 37.4922C255.561 37.4496 255.316 37.3598 255.057 37.3161C254.621 37.251 254.175 37.2915 253.757 37.4343C252.53 37.8385 251.732 38.8527 251.367 39.9046C251.002 40.9566 250.994 42.063 250.878 43.1516C250.849 43.4175 250.673 43.7721 250.36 43.7059C250.328 43.2816 250.289 42.8383 250.028 42.4719C249.767 42.1055 249.209 41.8443 248.728 41.9991C248.582 41.9662 248.453 41.8824 248.364 41.7627C248.38 41.9201 248.378 42.0788 248.357 42.2355C248.328 42.4329 248.26 42.6268 248.276 42.8265C248.298 42.9374 248.352 43.0392 248.432 43.1188C248.512 43.1984 248.614 43.2523 248.725 43.2733C249.198 43.1197 249.762 43.3797 250.026 43.7461C250.289 44.1125 250.326 44.5558 250.358 44.9801C250.671 45.0463 250.847 44.6917 250.875 44.4258C250.994 43.3371 251 42.2284 251.365 41.1788C251.73 40.1292 252.528 39.1127 253.755 38.7085C254.172 38.5637 254.618 38.5212 255.055 38.5844C255.314 38.6281 255.558 38.7179 255.817 38.7605C256.712 38.9082 257.687 38.4839 258.528 38.7794C259.054 38.965 259.393 39.394 259.634 39.8243C259.741 40.0553 259.887 40.2666 260.064 40.4495C260.419 40.7687 260.981 40.8526 261.492 40.9531C262.003 41.0535 262.522 41.2143 262.756 41.5807C262.762 41.5606 262.765 41.5346 262.77 41.5086Z" fill="black"/>
<path opacity="0.1" d="M248.359 40.9722C248.386 40.6512 248.367 40.3279 248.302 40.0125C248.251 40.3453 248.24 40.6829 248.269 41.0183C248.276 41.1046 248.288 41.1897 248.3 41.276C248.314 41.1743 248.34 41.0739 248.359 40.9722Z" fill="black"/>
</g>
<path d="M233.327 66.9465H280.388V99.589H233.327V66.9465Z" fill="white" stroke="#E6E6E6"/>
<path d="M261.605 73.7947H250.866V85.7564H261.605V73.7947Z" fill="#464353"/>
<path opacity="0.1" d="M261.605 73.7947H250.866V85.7564H261.605V73.7947Z" fill="black"/>
<path d="M246.29 96.7032L246.071 99.8111H249.136L249.328 95.7046L246.29 96.7032Z" fill="#A1616A"/>
<path d="M262.438 96.7032L261.973 99.8111H264.782L264.958 95.7046L262.438 96.7032Z" fill="#A1616A"/>
<path d="M253.547 79.7809C253.547 79.7809 253.44 81.3348 253.066 81.7407C252.692 82.1465 256.404 85.7404 259.325 82.1892C259.325 82.1892 258.07 81.1212 258.364 79.925C258.657 78.7289 253.547 79.7809 253.547 79.7809Z" fill="#A1616A"/>
<path opacity="0.1" d="M253.547 79.7809C253.547 79.7809 253.44 81.3348 253.066 81.7407C252.692 82.1465 256.404 85.7404 259.325 82.1892C259.325 82.1892 258.07 81.1212 258.364 79.925C258.657 78.7289 253.547 79.7809 253.547 79.7809Z" fill="black"/>
<path d="M256.233 81.169C259.2 81.169 261.605 78.7639 261.605 75.7969C261.605 72.83 259.2 70.4248 256.233 70.4248C253.266 70.4248 250.861 72.83 250.861 75.7969C250.861 78.7639 253.266 81.169 256.233 81.169Z" fill="#A1616A"/>
<path d="M255.955 83.1129C255.955 83.1129 253.702 83.0755 253.365 81.0195C252.919 81.4055 252.448 81.7622 251.955 82.0875C251.736 82.1623 249.584 83.3798 249.179 83.4546C248.782 83.5351 248.413 83.7193 248.111 83.9886C247.58 84.4056 247.146 84.9329 246.839 85.5341C246.532 86.1352 246.359 86.7959 246.332 87.4703C246.258 89.8787 245.964 94.5833 245.964 94.5833L246.076 96.2868V97.3976C246.076 97.3976 248.073 97.9316 249.28 96.8636C249.28 96.8636 249.28 96.4577 249.504 96.3295C249.729 96.2014 249.761 95.662 249.723 95.4377C249.704 95.1051 249.704 94.7717 249.723 94.4391C249.762 94.62 249.869 94.7788 250.022 94.8824C250.111 95.1836 250.136 95.5 250.097 95.8115C249.985 96.0305 249.873 96.5485 249.985 96.6606C250.041 96.7598 250.065 96.8746 250.051 96.988C250.038 97.1014 249.988 97.2075 249.91 97.2908C249.706 97.576 249.545 97.8889 249.43 98.2199C249.43 98.2199 249.317 98.8821 249.205 98.9569C249.079 99.2277 248.992 99.5155 248.949 99.8112H262.299C262.064 99.1349 261.885 98.4401 261.765 97.734C261.803 97.4029 261.434 96.0305 261.69 95.662C262.068 95.1737 262.276 94.5757 262.283 93.9586L262.433 95.4003L262.027 98.6044C262.027 98.6044 264.505 99.3841 264.766 98.8981C265.043 98.0525 265.254 97.1865 265.396 96.3082C265.396 96.3082 265.989 93.6381 266.139 93.2697C266.288 92.9012 266.619 85.4945 264.617 84.4212C262.614 83.3478 258.839 81.5001 258.743 81.5909C258.529 82.1303 258.133 82.5778 257.624 82.8558C257.115 83.1338 256.524 83.2248 255.955 83.1129V83.1129Z" fill="#77CB5C"/>
<path opacity="0.1" d="M249.52 90.3542C249.139 90.8999 248.975 91.5684 249.061 92.2286C249.151 92.8825 249.365 93.5133 249.691 94.087" stroke="black" stroke-miterlimit="10"/>
<path opacity="0.1" d="M262.491 90.8616C262.587 91.1331 262.662 91.4116 262.716 91.6946C262.812 92.0483 262.83 92.4186 262.769 92.7799C262.708 93.1413 262.57 93.4852 262.363 93.788" stroke="black" stroke-miterlimit="10"/>
<path d="M253.83 72.1229C254.25 72.0109 254.696 72.0565 255.085 72.2511C255.467 72.4483 255.868 72.6075 256.281 72.7264C256.559 72.7851 256.815 72.7851 257.125 72.8278C257.64 72.9215 258.116 73.1673 258.491 73.5337C258.866 73.9001 259.123 74.3703 259.229 74.8837C259.469 76.1974 258.695 77.4897 258.695 78.8301C258.697 79.5971 258.967 80.3392 259.458 80.9287C259.87 81.3042 260.229 81.7335 260.526 82.205C260.681 82.5468 260.713 82.9366 260.863 83.273C261.189 83.8779 261.73 84.3388 262.379 84.5653C263.023 84.7815 263.643 85.0605 264.232 85.3984C265.3 86.1086 265.93 87.4703 267.169 87.764C267.231 87.7906 267.297 87.8043 267.364 87.8043C267.431 87.8043 267.498 87.7906 267.559 87.764C267.615 87.7192 267.661 87.6624 267.692 87.5977C267.724 87.533 267.74 87.4621 267.741 87.3902C267.771 87.1288 267.743 86.8638 267.657 86.6151C267.571 86.3663 267.43 86.1402 267.244 85.9537C266.94 85.6493 266.496 85.4197 266.4 85.0085C266.304 84.5974 266.56 84.2449 266.699 83.8711C267.143 82.6589 266.406 81.3399 265.567 80.3573C264.729 79.3747 263.725 78.4029 263.522 77.1533C263.474 76.7314 263.458 76.3066 263.474 75.8823C263.458 75.0081 263.307 74.1415 263.025 73.3138C262.89 72.8665 262.673 72.4482 262.385 72.0802C262.118 71.7598 261.776 71.5142 261.498 71.2044C261.129 70.6948 260.797 70.1594 260.505 69.6024C260.08 68.9423 259.501 68.3961 258.817 68.0117C258.132 67.6272 257.364 67.4162 256.58 67.397C255.079 67.397 253.659 68.0591 252.388 68.8548C251.92 69.1098 251.516 69.4655 251.202 69.8961C250.668 70.7452 250.829 71.8666 250.519 72.8278C250.209 73.789 249.478 74.4993 249.221 75.4391C249.142 75.7153 249.13 76.0062 249.184 76.2882C249.279 76.5858 249.406 76.8722 249.563 77.1426C249.847 77.8302 250.008 78.5622 250.038 79.3053C250.118 80.2025 250.156 81.169 249.686 81.9327C249.321 82.3956 248.867 82.7806 248.351 83.0647C248.874 83.4896 249.543 83.6945 250.215 83.6361C251.229 83.6789 252.404 83.6361 253.034 82.8351C253.411 82.26 253.563 81.5661 253.461 80.886C253.411 80.1427 253.261 79.4098 253.013 78.7073C252.666 77.7193 252.132 76.7848 251.977 75.7488C251.916 75.3752 251.932 74.9931 252.024 74.6259C252.116 74.2586 252.281 73.9139 252.511 73.6128C252.703 73.3725 253.045 73.2497 253.205 72.9934C253.408 72.6516 253.349 72.2938 253.83 72.1229Z" fill="#464353"/>
<g opacity="0.1">
<path opacity="0.1" d="M249.563 77.0733C249.847 77.7608 250.007 78.4928 250.038 79.236C250.038 79.471 250.076 79.7112 250.081 79.9515C250.137 79.4297 250.137 78.9034 250.081 78.3816C250.048 77.6473 249.887 76.9244 249.606 76.2455C249.452 75.9754 249.325 75.6911 249.227 75.3965C249.148 75.6708 249.135 75.9599 249.189 76.2402C249.284 76.5302 249.409 76.8095 249.563 77.0733V77.0733Z" fill="black"/>
<path opacity="0.1" d="M253.082 81.9966C252.452 82.7923 251.277 82.8403 250.262 82.8029C249.833 82.8043 249.406 82.7394 248.997 82.6107C248.794 82.7762 248.575 82.9311 248.361 83.0806C248.885 83.5055 249.553 83.7104 250.225 83.652C251.24 83.6947 252.414 83.652 253.045 82.851C253.406 82.3168 253.561 81.67 253.482 81.03C253.435 81.3815 253.297 81.7146 253.082 81.9966Z" fill="black"/>
<path opacity="0.1" d="M266.438 84.1326C266.453 84.1935 266.474 84.2526 266.502 84.3088C266.566 84.1593 266.641 84.0044 266.699 83.8496C266.828 83.4978 266.864 83.1193 266.806 82.7495C266.788 82.8345 266.765 82.9183 266.737 83.0005C266.598 83.3743 266.347 83.7481 266.438 84.1326Z" fill="black"/>
<path opacity="0.1" d="M259.26 75.14C259.322 74.7741 259.322 74.4006 259.26 74.0347C259.156 73.5209 258.899 73.0503 258.524 72.6838C258.149 72.3173 257.673 72.0717 257.156 71.9787C256.873 71.9307 256.59 71.9307 256.313 71.8773C255.9 71.7561 255.5 71.597 255.117 71.402C254.729 71.2056 254.282 71.1581 253.862 71.2685C253.381 71.4394 253.44 71.8025 253.226 72.155C253.071 72.4113 252.724 72.5394 252.532 72.7744C252.109 73.3389 251.918 74.0439 251.998 74.7449C252.065 74.3364 252.236 73.952 252.495 73.6288C252.687 73.3885 253.029 73.2657 253.189 73.0094C253.402 72.6516 253.344 72.2938 253.824 72.1229C254.244 72.0109 254.691 72.0564 255.079 72.2511C255.461 72.4483 255.862 72.6075 256.275 72.7263C256.553 72.7851 256.809 72.7851 257.119 72.8278C257.635 72.9215 258.111 73.1673 258.486 73.5337C258.861 73.9001 259.117 74.3702 259.223 74.8837C259.241 74.9683 259.253 75.0539 259.26 75.14V75.14Z" fill="black"/>
<path opacity="0.1" d="M267.575 86.8935C267.45 86.9426 267.311 86.9426 267.185 86.8935C265.946 86.5998 265.306 85.2381 264.248 84.5279C263.657 84.1944 263.037 83.9155 262.395 83.6948C261.747 83.4705 261.206 83.0114 260.879 82.4079C260.729 82.0608 260.697 81.6763 260.542 81.3399C260.245 80.8685 259.886 80.4393 259.474 80.0636C259.029 79.5339 258.761 78.8787 258.705 78.1892C258.673 78.3959 258.657 78.6048 258.657 78.814C258.667 79.5912 258.951 80.3401 259.458 80.9287C259.87 81.3041 260.229 81.7334 260.526 82.205C260.681 82.5467 260.713 82.9365 260.863 83.273C261.189 83.8778 261.73 84.3387 262.379 84.5653C263.023 84.7814 263.643 85.0605 264.232 85.3983C265.3 86.1085 265.93 87.4703 267.169 87.764C267.231 87.7906 267.297 87.8043 267.364 87.8043C267.431 87.8043 267.498 87.7906 267.559 87.764C267.615 87.719 267.661 87.6621 267.692 87.5974C267.723 87.5328 267.74 87.462 267.741 87.3901C267.765 87.1887 267.754 86.9845 267.709 86.7867C267.674 86.8336 267.628 86.8704 267.575 86.8935V86.8935Z" fill="black"/>
</g>
<path opacity="0.1" d="M244.597 68.8972H237.729V78.7069H244.597V68.8972Z" fill="#6C63FF"/>
<path opacity="0.1" d="M243.614 70.3022H238.712V77.3084H243.614V70.3022Z" fill="#6C63FF"/>
<path opacity="0.1" d="M278.431 70.3718H267.153V76.2566H278.431V70.3718Z" fill="#6C63FF"/>
<path opacity="0.1" d="M276.963 71.1404H268.627V75.4925H276.963V71.1404Z" fill="#6C63FF"/>
<path d="M155.262 150.111C160.291 150.111 164.368 146.034 164.368 141.005C164.368 135.976 160.291 131.899 155.262 131.899C150.233 131.899 146.156 135.976 146.156 141.005C146.156 146.034 150.233 150.111 155.262 150.111Z" fill="#E6E6E6"/>
<path d="M155.262 147.987C159.118 147.987 162.243 144.861 162.243 141.006C162.243 137.15 159.118 134.024 155.262 134.024C151.407 134.024 148.281 137.15 148.281 141.006C148.281 144.861 151.407 147.987 155.262 147.987Z" fill="white"/>
<path d="M158.759 144.819C158.718 144.819 158.676 144.81 158.638 144.794C158.599 144.778 158.564 144.755 158.535 144.725L151.539 137.73C151.482 137.67 151.451 137.59 151.452 137.507C151.453 137.424 151.486 137.345 151.545 137.286C151.603 137.227 151.683 137.194 151.766 137.193C151.848 137.192 151.929 137.223 151.989 137.28L158.984 144.276C159.029 144.32 159.059 144.377 159.071 144.439C159.083 144.5 159.077 144.564 159.053 144.622C159.029 144.68 158.988 144.73 158.936 144.765C158.884 144.8 158.822 144.819 158.759 144.819V144.819Z" fill="#77CB5C"/>
<path d="M155.103 142.192L154.074 141.163C154.068 141.157 154.06 141.153 154.052 141.152C154.044 141.151 154.035 141.152 154.028 141.156C154.02 141.159 154.014 141.165 154.01 141.173C154.007 141.18 154.005 141.188 154.006 141.196C154.048 141.464 154.173 141.71 154.364 141.902C154.555 142.093 154.802 142.218 155.069 142.26C155.078 142.261 155.086 142.259 155.093 142.255C155.101 142.251 155.107 142.245 155.11 142.238C155.114 142.23 155.115 142.222 155.114 142.214C155.113 142.206 155.109 142.198 155.103 142.192V142.192Z" fill="#77CB5C"/>
<path d="M155.421 139.813L156.452 140.843C156.458 140.849 156.465 140.853 156.473 140.855C156.482 140.856 156.49 140.855 156.498 140.851C156.505 140.847 156.511 140.841 156.515 140.834C156.519 140.827 156.52 140.818 156.519 140.81C156.478 140.542 156.352 140.295 156.161 140.104C155.97 139.913 155.722 139.787 155.455 139.746C155.447 139.744 155.438 139.746 155.431 139.749C155.423 139.753 155.417 139.759 155.413 139.767C155.41 139.774 155.408 139.783 155.41 139.791C155.411 139.799 155.415 139.807 155.421 139.813V139.813Z" fill="#77CB5C"/>
<path d="M159.932 141.348C159.998 141.244 160.033 141.124 160.033 141.002C160.032 140.879 159.997 140.76 159.93 140.657C159.42 139.86 158.748 139.179 157.958 138.659C157.156 138.126 156.218 137.836 155.256 137.823C154.77 137.823 154.288 137.903 153.828 138.057C153.815 138.061 153.804 138.069 153.795 138.079C153.786 138.089 153.779 138.101 153.776 138.114C153.773 138.128 153.773 138.141 153.777 138.154C153.781 138.167 153.788 138.179 153.797 138.189L154.736 139.128C154.746 139.137 154.758 139.145 154.771 139.148C154.785 139.152 154.799 139.152 154.812 139.149C155.13 139.071 155.463 139.077 155.779 139.165C156.094 139.253 156.381 139.421 156.613 139.653C156.844 139.885 157.013 140.172 157.101 140.487C157.189 140.803 157.195 141.136 157.117 141.454C157.114 141.467 157.114 141.481 157.118 141.495C157.122 141.508 157.129 141.52 157.138 141.53L158.489 142.881C158.503 142.895 158.522 142.903 158.541 142.904C158.561 142.905 158.581 142.899 158.596 142.886C159.116 142.443 159.566 141.924 159.932 141.348V141.348Z" fill="#77CB5C"/>
<path d="M155.262 142.911C154.973 142.911 154.688 142.845 154.428 142.719C154.168 142.593 153.94 142.409 153.762 142.182C153.583 141.955 153.459 141.691 153.397 141.408C153.336 141.126 153.339 140.834 153.407 140.553C153.411 140.54 153.411 140.526 153.407 140.512C153.403 140.499 153.396 140.487 153.387 140.477L152.058 139.148C152.044 139.134 152.025 139.126 152.005 139.125C151.985 139.124 151.966 139.131 151.951 139.144C151.44 139.586 150.988 140.092 150.606 140.649C150.534 140.752 150.494 140.874 150.492 141C150.49 141.126 150.525 141.249 150.593 141.355C151.095 142.153 151.761 142.835 152.546 143.355C153.349 143.89 154.291 144.178 155.255 144.183C155.745 144.181 156.232 144.104 156.699 143.953C156.712 143.949 156.724 143.941 156.733 143.931C156.742 143.921 156.749 143.909 156.752 143.896C156.755 143.883 156.755 143.869 156.751 143.856C156.748 143.843 156.741 143.831 156.731 143.821L155.787 142.878C155.778 142.868 155.766 142.861 155.752 142.857C155.739 142.854 155.725 142.854 155.712 142.857C155.564 142.893 155.413 142.911 155.262 142.911V142.911Z" fill="#77CB5C"/>
<path d="M120.713 150.111C125.742 150.111 129.819 146.034 129.819 141.005C129.819 135.976 125.742 131.899 120.713 131.899C115.684 131.899 111.607 135.976 111.607 141.005C111.607 146.034 115.684 150.111 120.713 150.111Z" fill="#E6E6E6"/>
<path d="M120.713 147.987C124.569 147.987 127.695 144.861 127.695 141.006C127.695 137.15 124.569 134.024 120.713 134.024C116.858 134.024 113.732 137.15 113.732 141.006C113.732 144.861 116.858 147.987 120.713 147.987Z" fill="white"/>
<path d="M123.395 145.457C122.772 145.408 122.17 145.203 121.646 144.861C120.632 144.319 119.706 143.626 118.9 142.807C118.065 142.012 117.368 141.084 116.837 140.061C116.105 138.729 116.229 138.031 116.369 137.733C116.53 137.407 116.783 137.135 117.097 136.951C117.277 136.833 117.468 136.732 117.667 136.649C117.686 136.641 117.705 136.633 117.721 136.625C117.787 136.588 117.86 136.565 117.935 136.558C118.01 136.551 118.086 136.561 118.158 136.585C118.316 136.662 118.457 136.77 118.572 136.903C118.986 137.367 119.334 137.885 119.609 138.442C119.722 138.635 119.791 138.85 119.812 139.072C119.796 139.293 119.707 139.501 119.559 139.665C119.533 139.7 119.507 139.734 119.482 139.767C119.331 139.966 119.297 140.024 119.319 140.126C119.522 140.642 119.835 141.107 120.237 141.488C120.612 141.884 121.073 142.19 121.583 142.383C121.69 142.406 121.749 142.372 121.954 142.215C121.983 142.193 122.013 142.169 122.045 142.146C122.209 141.991 122.421 141.896 122.646 141.877H122.648C122.873 141.9 123.09 141.976 123.281 142.099C123.832 142.379 124.347 142.724 124.814 143.128C124.947 143.243 125.056 143.384 125.133 143.542C125.157 143.613 125.167 143.689 125.16 143.765C125.153 143.84 125.13 143.913 125.093 143.979C125.086 143.996 125.077 144.014 125.069 144.034C124.985 144.232 124.884 144.422 124.765 144.602C124.581 144.915 124.309 145.168 123.982 145.329C123.799 145.415 123.598 145.459 123.395 145.457Z" fill="#77CB5C"/>
<path d="M190.079 150.111C195.108 150.111 199.185 146.034 199.185 141.005C199.185 135.976 195.108 131.899 190.079 131.899C185.05 131.899 180.973 135.976 180.973 141.005C180.973 146.034 185.05 150.111 190.079 150.111Z" fill="#E6E6E6"/>
<path d="M190.079 147.952C193.934 147.952 197.06 144.827 197.06 140.971C197.06 137.115 193.934 133.99 190.079 133.99C186.223 133.99 183.098 137.115 183.098 140.971C183.098 144.827 186.223 147.952 190.079 147.952Z" fill="white"/>
<path d="M191.35 145.139H188.807C188.765 145.14 188.723 145.131 188.685 145.116C188.646 145.1 188.611 145.076 188.581 145.047C188.551 145.017 188.528 144.982 188.512 144.943C188.496 144.905 188.488 144.863 188.488 144.821C188.488 144.78 188.496 144.738 188.512 144.699C188.528 144.661 188.551 144.626 188.581 144.596C188.611 144.567 188.646 144.543 188.685 144.527C188.723 144.511 188.765 144.503 188.807 144.503H191.35C191.392 144.503 191.434 144.511 191.473 144.527C191.511 144.543 191.546 144.567 191.576 144.596C191.606 144.626 191.629 144.661 191.645 144.699C191.661 144.738 191.67 144.78 191.67 144.821C191.67 144.863 191.661 144.905 191.645 144.943C191.629 144.982 191.606 145.017 191.576 145.047C191.546 145.076 191.511 145.1 191.473 145.116C191.434 145.131 191.392 145.14 191.35 145.139Z" fill="#77CB5C"/>
<path d="M190.079 143.549C189.32 143.549 188.592 143.247 188.056 142.71C187.519 142.174 187.218 141.446 187.217 140.688V140.052C187.217 139.968 187.251 139.887 187.31 139.828C187.37 139.768 187.451 139.735 187.535 139.735C187.619 139.735 187.7 139.768 187.759 139.828C187.819 139.887 187.852 139.968 187.853 140.052V140.688C187.852 140.98 187.91 141.27 188.021 141.54C188.133 141.811 188.297 142.057 188.504 142.264C188.71 142.471 188.956 142.635 189.226 142.747C189.496 142.859 189.786 142.917 190.079 142.917C190.371 142.917 190.661 142.859 190.931 142.747C191.201 142.635 191.447 142.471 191.654 142.264C191.86 142.057 192.024 141.811 192.136 141.54C192.248 141.27 192.305 140.98 192.304 140.688V140.052C192.305 139.968 192.338 139.887 192.398 139.828C192.458 139.768 192.538 139.735 192.622 139.735C192.707 139.735 192.787 139.768 192.847 139.828C192.907 139.887 192.94 139.968 192.94 140.052V140.688C192.94 141.446 192.638 142.174 192.101 142.71C191.565 143.247 190.837 143.549 190.079 143.549V143.549Z" fill="#77CB5C"/>
<path d="M190.079 145.14C190.037 145.14 189.996 145.131 189.957 145.115C189.918 145.099 189.883 145.076 189.854 145.046C189.824 145.017 189.801 144.982 189.785 144.943C189.769 144.905 189.761 144.863 189.761 144.822V143.232C189.761 143.19 189.769 143.148 189.785 143.11C189.801 143.071 189.824 143.036 189.853 143.006C189.883 142.976 189.918 142.953 189.957 142.937C189.995 142.921 190.037 142.913 190.079 142.913C190.121 142.913 190.162 142.921 190.201 142.937C190.239 142.953 190.274 142.976 190.304 143.006C190.333 143.036 190.357 143.071 190.373 143.11C190.389 143.148 190.397 143.19 190.397 143.232V144.822C190.397 144.863 190.388 144.905 190.372 144.943C190.357 144.982 190.333 145.017 190.304 145.046C190.274 145.076 190.239 145.099 190.2 145.115C190.162 145.131 190.12 145.14 190.079 145.14V145.14Z" fill="#77CB5C"/>
<path d="M190.079 142.277C189.869 142.277 189.661 142.234 189.468 142.152C189.275 142.07 189.101 141.949 188.955 141.798C188.657 141.498 188.489 141.091 188.489 140.668V138.462C188.487 138.042 188.652 137.638 188.948 137.34C189.244 137.042 189.646 136.873 190.066 136.872C190.07 136.872 190.075 136.872 190.079 136.872C190.288 136.869 190.496 136.909 190.69 136.988C190.884 137.067 191.06 137.184 191.208 137.332C191.356 137.48 191.473 137.657 191.552 137.85C191.631 138.044 191.671 138.252 191.669 138.462V140.668C191.671 141.092 191.504 141.499 191.206 141.801C190.908 142.103 190.503 142.274 190.079 142.277V142.277Z" fill="#77CB5C"/>
<path d="M284.626 17.0884H26.1665V28.0687H284.626V17.0884Z" fill="#77CB5C"/>
<path d="M34.3256 24.737C35.4496 24.737 36.3608 23.8258 36.3608 22.7019C36.3608 21.5779 35.4496 20.6667 34.3256 20.6667C33.2017 20.6667 32.2905 21.5779 32.2905 22.7019C32.2905 23.8258 33.2017 24.737 34.3256 24.737Z" fill="white"/>
<path d="M42.051 24.737C43.1749 24.737 44.0861 23.8258 44.0861 22.7019C44.0861 21.5779 43.1749 20.6667 42.051 20.6667C40.927 20.6667 40.0159 21.5779 40.0159 22.7019C40.0159 23.8258 40.927 24.737 42.051 24.737Z" fill="white"/>
<path d="M49.7756 24.737C50.8996 24.737 51.8107 23.8258 51.8107 22.7019C51.8107 21.5779 50.8996 20.6667 49.7756 20.6667C48.6516 20.6667 47.7405 21.5779 47.7405 22.7019C47.7405 23.8258 48.6516 24.737 49.7756 24.737Z" fill="white"/>
<path d="M232.793 105.166H279.854V137.808H232.793V105.166Z" fill="white" stroke="#E6E6E6"/>
<path d="M264.874 111.333C262.105 107.019 256.627 106.818 256.627 106.818C256.627 106.818 251.289 106.188 247.864 112.759C244.672 118.883 240.267 124.796 247.155 126.23L248.399 122.659L249.17 126.496C250.15 126.561 251.134 126.576 252.117 126.542C259.493 126.322 266.518 126.606 266.291 124.166C265.991 120.921 267.538 115.484 264.874 111.333Z" fill="#2F2E41"/>
<path d="M253.202 122.878C253.202 122.878 253.835 126.326 252.416 127.45C250.998 128.574 253.615 135.32 257.962 134.534C262.31 133.748 264.071 128.087 264.071 128.087C264.071 128.087 259.723 127.189 261.334 122.617L253.202 122.878Z" fill="#EFB7B9"/>
<path d="M268.867 131.891V136.782H245.109V132.114C245.11 131.522 245.284 130.943 245.611 130.45C245.938 129.956 246.403 129.57 246.949 129.339L247.631 129.049C249.354 128.315 251.447 127.404 252.132 127.025C252.207 126.987 252.277 126.942 252.342 126.889C252.717 126.514 252.642 127.001 252.642 127.001C252.642 127.001 252.632 127.093 252.624 127.254C252.584 128.354 252.743 132.683 257.813 132.322C262.761 131.968 262.979 128.63 262.934 127.648C262.931 127.557 262.923 127.466 262.91 127.376C262.91 127.35 263.336 127.494 263.913 127.702C264.949 128.084 266.473 128.698 266.883 128.988C267.011 129.077 267.165 129.171 267.333 129.265C267.8 129.525 268.189 129.906 268.46 130.368C268.73 130.83 268.871 131.356 268.87 131.891H268.867Z" fill="#77CB5C"/>
<path opacity="0.1" d="M263.911 127.702C263.493 129.643 262.179 133.278 257.438 133.375C252.389 133.475 252.099 128.454 252.129 127.029C252.205 126.992 252.276 126.946 252.341 126.892C252.716 126.517 252.641 127.004 252.641 127.004C252.641 127.004 252.004 132.738 257.812 132.323C263.621 131.909 262.909 127.377 262.909 127.377C262.909 127.35 263.335 127.489 263.911 127.702Z" fill="black"/>
<path opacity="0.1" d="M253.202 122.878C253.202 122.878 253.835 126.326 252.416 127.45C250.998 128.574 253.615 135.32 257.962 134.534C262.31 133.748 264.071 128.087 264.071 128.087C264.071 128.087 259.723 127.189 261.334 122.617L253.202 122.878Z" fill="black"/>
<path d="M256.858 124.424C260.692 124.424 263.8 121.196 263.8 117.214C263.8 113.233 260.692 110.005 256.858 110.005C253.024 110.005 249.916 113.233 249.916 117.214C249.916 121.196 253.024 124.424 256.858 124.424Z" fill="#FFB8B8"/>
<path d="M263.556 110.711L258.441 107.869L251.377 109.032L249.916 115.879L253.554 115.731L254.57 113.215V115.689L256.249 115.621L257.223 111.616L257.832 115.879L263.8 115.75L263.556 110.711Z" fill="#2F2E41"/>
<path opacity="0.1" d="M278 110H268V126H278V110Z" fill="#6C63FF"/>
<path opacity="0.1" d="M277.336 116H269V120.352H277.336V116Z" fill="#6C63FF"/>
<path opacity="0.1" d="M277.336 121H269V125.352H277.336V121Z" fill="#6C63FF"/>
<path opacity="0.1" d="M185.336 78H177V82.3522H185.336V78Z" fill="#6C63FF"/>
<path opacity="0.1" d="M277.336 111H269V115.352H277.336V111Z" fill="#6C63FF"/>
</svg>
