<svg width="341" height="169" viewBox="0 0 341 169" fill="none" xmlns="http://www.w3.org/2000/svg">
<path d="M229.663 97.9995V162.904H67.0523C48.5249 162.904 33.4509 148.346 33.4509 130.452C33.4509 112.558 48.5249 97.9995 67.0523 97.9995H229.663Z" fill="#F2F2F2"/>
<path d="M233.657 162.405C233.657 163.067 233.394 163.702 232.926 164.17C232.458 164.638 231.823 164.901 231.161 164.901H64.1559C55.0855 164.901 46.3867 161.298 39.973 154.884C33.5593 148.471 29.9561 139.772 29.9561 130.701C29.9561 121.631 33.5593 112.932 39.973 106.518C46.3867 100.105 55.0855 96.5015 64.1559 96.5015H231.161C231.823 96.5015 232.458 96.7645 232.926 97.2326C233.394 97.7008 233.657 98.3357 233.657 98.9978C233.657 99.6599 233.394 100.295 232.926 100.763C232.458 101.231 231.823 101.494 231.161 101.494H64.1559C56.4097 101.494 48.9807 104.571 43.5033 110.049C38.0259 115.526 34.9487 122.955 34.9487 130.701C34.9487 138.448 38.0259 145.876 43.5033 151.354C48.9807 156.831 56.4097 159.908 64.1559 159.908H231.161C231.823 159.909 232.458 160.172 232.926 160.64C233.394 161.108 233.657 161.743 233.657 162.405Z" fill="#E0BF24"/>
<path d="M229.663 112.978H54.9194C54.787 112.978 54.66 112.925 54.5664 112.831C54.4728 112.738 54.4202 112.611 54.4202 112.478C54.4202 112.346 54.4728 112.219 54.5664 112.125C54.66 112.032 54.787 111.979 54.9194 111.979H229.663C229.796 111.979 229.923 112.032 230.016 112.125C230.11 112.219 230.162 112.346 230.162 112.478C230.162 112.611 230.11 112.738 230.016 112.831C229.923 112.925 229.796 112.978 229.663 112.978Z" fill="#CCCCCC"/>
<path d="M229.663 124.96H54.9194C54.787 124.96 54.66 124.907 54.5664 124.814C54.4728 124.72 54.4202 124.593 54.4202 124.461C54.4202 124.328 54.4728 124.201 54.5664 124.108C54.66 124.014 54.787 123.961 54.9194 123.961H229.663C229.796 123.961 229.923 124.014 230.016 124.108C230.11 124.201 230.162 124.328 230.162 124.461C230.162 124.593 230.11 124.72 230.016 124.814C229.923 124.907 229.796 124.96 229.663 124.96Z" fill="#CCCCCC"/>
<path d="M229.663 136.942H54.9194C54.787 136.942 54.66 136.89 54.5664 136.796C54.4728 136.703 54.4202 136.576 54.4202 136.443C54.4202 136.311 54.4728 136.184 54.5664 136.09C54.66 135.996 54.787 135.944 54.9194 135.944H229.663C229.796 135.944 229.923 135.996 230.016 136.09C230.11 136.184 230.162 136.311 230.162 136.443C230.162 136.576 230.11 136.703 230.016 136.796C229.923 136.89 229.796 136.942 229.663 136.942Z" fill="#CCCCCC"/>
<path d="M229.663 148.925H54.9194C54.787 148.925 54.66 148.872 54.5664 148.779C54.4728 148.685 54.4202 148.558 54.4202 148.426C54.4202 148.293 54.4728 148.166 54.5664 148.073C54.66 147.979 54.787 147.926 54.9194 147.926H229.663C229.796 147.926 229.923 147.979 230.016 148.073C230.11 148.166 230.162 148.293 230.162 148.426C230.162 148.558 230.11 148.685 230.016 148.779C229.923 148.872 229.796 148.925 229.663 148.925Z" fill="#CCCCCC"/>
<path d="M340.031 165.258H0.96875C0.711821 165.258 0.46543 165.231 0.283754 165.184C0.102078 165.138 0 165.074 0 165.008C0 164.942 0.102078 164.878 0.283754 164.831C0.46543 164.785 0.711821 164.758 0.96875 164.758H340.031C340.288 164.758 340.535 164.785 340.716 164.831C340.898 164.878 341 164.942 341 165.008C341 165.074 340.898 165.138 340.716 165.184C340.535 165.231 340.288 165.258 340.031 165.258Z" fill="#CCCCCC"/>
<path d="M305.414 154.076C310.972 148.153 314.937 142.903 314.27 142.349C313.602 141.795 308.556 146.148 302.998 152.071C297.44 157.994 293.475 163.244 294.142 163.797C294.81 164.351 299.856 159.998 305.414 154.076Z" fill="#E0E0E0"/>
<path d="M140.632 17.27C146.19 11.3473 149.899 5.88537 148.917 5.07055C147.935 4.25574 142.633 8.39655 137.075 14.3193C131.517 20.2421 127.807 25.704 128.79 26.5188C129.772 27.3336 135.074 23.1928 140.632 17.27Z" fill="#E0E0E0"/>
<path d="M213.785 92.0535L208.233 84.8423L183.236 101.249L188.788 108.461L213.785 92.0535Z" fill="#BD338E"/>
<path opacity="0.05" d="M191.49 111.028L200.83 115.846L215.031 90.4826L205.691 85.6649L191.49 111.028Z" fill="black"/>
<path d="M192.529 111.564L200.83 115.846L215.031 90.4826L206.73 86.2008L192.529 111.564Z" fill="#BD338E"/>
<path d="M149.42 4.53402L128.286 27.0547L293.675 164.263L314.809 141.742L149.42 4.53402Z" fill="url(#paint0_linear)"/>
<path d="M295.393 164.201C292.14 161.572 127.633 25.0263 130.004 26.9935C144.362 15.0637 150.131 5.54521 150.131 5.54521L315.52 142.753C315.52 142.753 306.012 151.744 295.393 164.201Z" fill="#F5F5F5"/>
<path opacity="0.05" d="M234.871 76.3794L221.237 65.0684L201.11 86.5166L214.744 97.8277L234.871 76.3794Z" fill="black"/>
<path d="M234.279 75.8871L221.83 65.5596L201.703 87.0078L214.151 97.3353L234.279 75.8871Z" fill="#BD338E"/>
<path opacity="0.05" d="M231.908 73.9201L223.609 67.0352L203.481 88.4834L211.78 95.3684L231.908 73.9201Z" fill="black"/>
<path d="M231.315 73.4283L224.201 67.5269L204.074 88.9751L211.187 94.8765L231.315 73.4283Z" fill="#BD338E"/>
<path d="M136.992 121.821C121.351 121.719 105.905 118.349 91.652 111.928C90.8036 111.552 90.0835 110.937 89.5793 110.16C89.0752 109.383 88.8089 108.476 88.8128 107.551V68.7061C88.8142 67.4335 89.3223 66.2135 90.2255 65.3137C91.1287 64.4138 92.3534 63.9077 93.6307 63.9062H180.353C181.631 63.9077 182.855 64.4138 183.759 65.3137C184.662 66.2135 185.17 67.4336 185.171 68.7061V107.551C185.175 108.476 184.909 109.383 184.405 110.16C183.901 110.937 183.181 111.552 182.332 111.928C168.08 118.349 152.634 121.719 136.992 121.821V121.821Z" fill="#3F3D56"/>
<path d="M136.952 90.3677C136.309 90.3683 135.672 90.24 135.08 89.9903L66.2958 60.9013C65.4087 60.5262 64.6541 59.8934 64.1293 59.0844C63.6044 58.2754 63.3333 57.3274 63.3509 56.3626C63.3685 55.3977 63.6741 54.4603 64.2282 53.6712C64.7823 52.882 65.5595 52.2773 66.4597 51.9351L135.244 25.7784C136.352 25.3552 137.577 25.3578 138.683 25.7858L206.546 51.9423C207.441 52.2874 208.213 52.8922 208.764 53.6795C209.314 54.4667 209.617 55.4006 209.635 56.3617C209.653 57.3227 209.384 58.2672 208.863 59.0743C208.342 59.8814 207.593 60.5144 206.711 60.8924L138.848 89.9809C138.248 90.2367 137.604 90.3683 136.952 90.3677V90.3677Z" fill="#3F3D56"/>
<path d="M96.801 114.332C100.386 114.332 103.292 111.538 103.292 108.091C103.292 104.645 100.386 101.851 96.801 101.851C93.2164 101.851 90.3105 104.645 90.3105 108.091C90.3105 111.538 93.2164 114.332 96.801 114.332Z" fill="#77CB5C"/>
<path opacity="0.2" d="M207.033 56.7116L139.137 85.738C138.608 85.9643 138.038 86.0816 137.463 86.083C136.887 86.0844 136.317 85.9698 135.787 85.7461L66.9704 56.7201C66.1062 56.3643 65.3852 55.7307 64.9213 54.9195C64.6178 55.4455 64.4298 56.0301 64.3697 56.6344C64.3095 57.2387 64.3787 57.8488 64.5725 58.4243C64.7663 58.9998 65.0803 59.5275 65.4937 59.9724C65.9072 60.4173 66.4105 60.7691 66.9704 61.0046L135.787 90.0305C136.317 90.2543 136.887 90.3688 137.463 90.3674C138.038 90.3661 138.608 90.2487 139.137 90.0224L207.033 60.9961C207.59 60.7586 208.091 60.4056 208.501 59.9605C208.912 59.5155 209.223 58.9884 209.415 58.4141C209.607 57.8398 209.675 57.2314 209.614 56.629C209.553 56.0266 209.366 55.4439 209.063 54.9194C208.603 55.7242 207.889 56.3542 207.033 56.7116V56.7116Z" fill="black"/>
<path opacity="0.8" d="M97.3698 107.842C97.653 107.842 97.9247 107.73 98.125 107.531C98.3252 107.332 98.4377 107.063 98.4377 106.781V71.2849L133.661 58.5391C133.945 58.5433 134.218 58.4356 134.421 58.2396C134.624 58.0436 134.741 57.7754 134.745 57.4941C134.749 57.2127 134.641 56.9413 134.444 56.7394C134.246 56.5374 133.976 56.4217 133.693 56.4175L98.4696 69.1633C98.1861 69.1568 97.9043 69.2076 97.6412 69.3125C97.378 69.4173 97.1391 69.5742 96.9388 69.7735C96.7363 69.9704 96.5756 70.2056 96.4662 70.4652C96.3568 70.7248 96.3009 71.0035 96.3018 71.2849V106.781C96.3018 107.063 96.4143 107.332 96.6146 107.531C96.8149 107.73 97.0865 107.842 97.3698 107.842V107.842Z" fill="#77CB5C"/>
<defs>
<linearGradient id="paint0_linear" x1="210.981" y1="95.6586" x2="230.663" y2="71.9339" gradientUnits="userSpaceOnUse">
<stop stop-color="#808080" stop-opacity="0.25"/>
<stop offset="0.53514" stop-color="#808080" stop-opacity="0.12"/>
<stop offset="1" stop-color="#808080" stop-opacity="0.1"/>
</linearGradient>
</defs>
</svg>
